<svg width="80" height="81" viewBox="0 0 80 81" fill="none" xmlns="http://www.w3.org/2000/svg">
<path class="sp-red" fill="#DF232F" d="M74.2002 36.9674C53.2669 33.1007 19.9335 19.834 6.66688 7.83403C6.26688 7.5007 5.66688 7.5007 5.33354 7.9007C5.00021 8.3007 5.00021 8.9007 5.40021 9.23403C7.60021 11.234 10.3335 13.234 13.4002 15.234C13.3335 15.3674 13.3335 15.5674 13.4002 15.7007L16.0669 29.7007C16.1335 30.034 16.3335 30.234 16.6002 30.3674C16.8669 30.5007 17.2002 30.5007 17.4669 30.3007L27.6669 24.3007L30.0669 36.9674C30.1335 37.3007 30.3335 37.5674 30.6002 37.634C30.8669 37.7674 31.2002 37.7007 31.4669 37.5674L42.3335 30.3007L45.3335 42.3007C45.4002 42.634 45.6669 42.834 45.9335 42.9674C46.2669 43.1007 46.5335 43.034 46.8002 42.834L56.4669 35.5674L60.8002 47.1674C60.9335 47.5007 61.2002 47.7007 61.4669 47.7674C61.5335 47.7674 61.6002 47.7674 61.6669 47.7674C61.9335 47.7674 62.1335 47.634 62.3335 47.5007L71.2669 38.3007C72.1335 38.5007 73.0002 38.634 73.8669 38.834C73.9335 38.834 74.0002 38.834 74.0669 38.834C74.5335 38.834 74.9335 38.5007 75.0002 38.034C75.0002 37.5674 74.6669 37.034 74.2002 36.9674ZM15.4669 16.5007C18.9335 18.5674 22.7335 20.634 26.8002 22.634L17.6669 28.034L15.4669 16.5007ZM29.4669 23.9007C33.2002 25.634 37.1335 27.3674 41.1335 28.9007L31.6669 35.234L29.4669 23.9007ZM44.3335 30.1674C48.1335 31.5674 51.8669 32.9007 55.6002 34.1007L46.9335 40.5674L44.3335 30.1674ZM62.0669 45.1007L58.3335 34.9007C62.0669 36.034 65.7335 37.034 69.1335 37.7674L62.0669 45.1007Z"/>
<path class="sp-red" fill="#DF232F" d="M59.6667 27.7671H61.7334V29.8337C61.7334 30.3671 62.1334 30.7671 62.6667 30.7671C63.2001 30.7671 63.6001 30.3671 63.6001 29.8337V27.7671H65.6667C66.2001 27.7671 66.6001 27.3671 66.6001 26.8337C66.6001 26.3004 66.2001 25.9004 65.6667 25.9004H63.6001V23.8337C63.6001 23.3004 63.2001 22.9004 62.6667 22.9004C62.1334 22.9004 61.7334 23.3004 61.7334 23.8337V25.9004H59.6667C59.1334 25.9004 58.7334 26.3004 58.7334 26.8337C58.7334 27.3671 59.1334 27.7671 59.6667 27.7671Z"/>
<path class="sp-red" fill="#DF232F" d="M13.0002 51.2344H10.9336V49.1677C10.9336 48.6344 10.5336 48.2344 10.0002 48.2344C9.46689 48.2344 9.0669 48.6344 9.0669 49.1677V51.2344H7.00023C6.46689 51.2344 6.06689 51.6344 6.06689 52.1677C6.06689 52.701 6.46689 53.101 7.00023 53.101H9.0669V55.1677C9.0669 55.701 9.46689 56.101 10.0002 56.101C10.5336 56.101 10.9336 55.701 10.9336 55.1677V53.101H13.0002C13.5336 53.101 13.9336 52.701 13.9336 52.1677C13.9336 51.6344 13.5336 51.2344 13.0002 51.2344Z"/>
<path class="sp-red" fill="#DF232F" d="M69.0002 65.0331H65.4669V61.4997C65.4669 60.9664 65.0669 60.5664 64.5336 60.5664C64.0002 60.5664 63.6002 60.9664 63.6002 61.4997V65.0331H60.0002C59.4669 65.0331 59.0669 65.4331 59.0669 65.9664C59.0669 66.4997 59.4669 66.8997 60.0002 66.8997H63.5336V70.4331C63.5336 70.9664 63.9336 71.3664 64.4669 71.3664C65.0002 71.3664 65.4002 70.9664 65.4002 70.4331V66.8997H68.9336C69.4669 66.8997 69.8669 66.4997 69.8669 65.9664C69.8669 65.4331 69.5336 65.0331 69.0002 65.0331Z"/>
<path class="sp-blue" fill="#2F347F" d="M54.9336 51.5672C54.6669 51.5005 54.4002 51.5672 54.2002 51.7005C53.5336 51.9672 49.0002 53.6338 41.0002 55.3672C40.9336 55.3672 40.9336 55.3672 40.8669 55.3672H40.8002C32.6002 57.1672 20.8002 58.9672 6.00023 59.3672C5.46689 59.3672 5.06689 59.8338 5.06689 60.3672C5.06689 60.9005 5.53356 61.3005 6.00023 61.3005C7.33356 61.2338 8.66689 61.2338 9.93356 61.1672L19.0002 71.1672C19.2002 71.3672 19.4669 71.5005 19.7336 71.5005C19.8002 71.5005 19.8002 71.5005 19.8669 71.5005C20.2002 71.5005 20.4669 71.3005 20.6002 71.0338L26.6002 60.3672L35.1336 69.0338C35.3336 69.2338 35.6669 69.3672 36.0002 69.3005C36.3336 69.2338 36.6002 69.0338 36.6669 68.7672L41.5336 57.7672L50.8002 65.7005C51.0669 65.9005 51.4002 65.9672 51.6669 65.9005C52.0002 65.8338 52.2002 65.5672 52.3336 65.2338L55.6669 52.7005C55.7336 52.2338 55.4669 51.7005 54.9336 51.5672ZM19.5336 68.9672L12.4002 60.9672C16.8002 60.7005 20.8669 60.3672 24.6002 59.9005L19.5336 68.9672ZM35.4002 66.7672L28.2002 59.4338C32.4002 58.8338 36.2002 58.1672 39.4669 57.5005L35.4002 66.7672ZM50.8669 63.3005L43.2002 56.7005C48.0669 55.5672 51.4669 54.5672 53.3336 53.9005L50.8669 63.3005Z"/>
<path class="sp-blue" fill="#2F347F" d="M42.3337 21.7671H44.4004V23.8337C44.4004 24.3671 44.8004 24.7671 45.3337 24.7671C45.8671 24.7671 46.2671 24.3671 46.2671 23.8337V21.7671H48.3337C48.8671 21.7671 49.2671 21.3671 49.2671 20.8337C49.2671 20.3004 48.8671 19.9004 48.3337 19.9004H46.2671V17.8337C46.2671 17.3004 45.8671 16.9004 45.3337 16.9004C44.8004 16.9004 44.4004 17.3004 44.4004 17.8337V19.9004H42.3337C41.8004 19.9004 41.4004 20.3004 41.4004 20.8337C41.4004 21.3671 41.8004 21.7671 42.3337 21.7671Z"/>
<path class="sp-blue" fill="#2F347F" d="M73.6667 10.3671H70.1334V6.83372C70.1334 6.30039 69.7334 5.90039 69.2001 5.90039C68.6667 5.90039 68.2667 6.30039 68.2667 6.83372V10.3671H64.6667C64.1334 10.3671 63.7334 10.7671 63.7334 11.3004C63.7334 11.8337 64.1334 12.2337 64.6667 12.2337H68.2001V15.8337C68.2001 16.3671 68.6001 16.7671 69.1334 16.7671C69.6667 16.7671 70.0667 16.3671 70.0667 15.8337V12.3004H73.6001C74.1334 12.3004 74.5334 11.9004 74.5334 11.3671C74.5334 10.8337 74.2001 10.3671 73.6667 10.3671Z"/>
<path class="sp-blue" fill="#2F347F" d="M18.6667 44.9661H22.2001V48.4995C22.2001 49.0328 22.6001 49.4328 23.1334 49.4328C23.6667 49.4328 24.0667 49.0328 24.0667 48.4995V44.9661H27.6001C28.1334 44.9661 28.5334 44.5661 28.5334 44.0328C28.5334 43.4995 28.1334 43.0995 27.6001 43.0995H24.0667V39.5661C24.0667 39.0328 23.6667 38.6328 23.1334 38.6328C22.6001 38.6328 22.2001 39.0328 22.2001 39.5661V43.0995H18.6667C18.1334 43.0995 17.7334 43.4995 17.7334 44.0328C17.7334 44.5661 18.1334 44.9661 18.6667 44.9661Z"/>
</svg>
