<svg width="80" height="81" viewBox="0 0 80 81" fill="none" xmlns="http://www.w3.org/2000/svg">
<path class="sp-blue" fill="#2F347F" d="M37.0668 70.4337L35.4002 72.0337V43.5004C35.4002 42.9671 35.0002 42.5671 34.4668 42.5671H8.20016L12.1335 38.3004H22.9335V39.5004C22.9335 40.0337 23.3335 40.4337 23.8668 40.4337H56.2668C56.8002 40.4337 57.2002 40.0337 57.2002 39.5004V6.83372C57.2002 6.30039 56.8002 5.90039 56.2668 5.90039H23.8668C23.3335 5.90039 22.9335 6.30039 22.9335 6.83372V36.4337H11.7335C11.4668 36.4337 11.2002 36.5671 11.0668 36.7671L5.60016 42.6337C5.40016 42.7671 5.3335 43.1004 5.3335 43.3671C5.3335 43.4337 5.3335 43.5004 5.3335 43.5004V74.3004C5.3335 74.8337 5.7335 75.2337 6.26683 75.2337H34.4668C34.6002 75.2337 34.6668 75.2337 34.8002 75.1671C34.9335 75.1004 35.0002 75.0337 35.0668 74.9671L38.3335 71.7671C38.7335 71.4337 38.7335 70.8337 38.3335 70.4337C38.0668 70.0337 37.4668 70.0337 37.0668 70.4337ZM24.8002 7.76706H55.3335V38.5671H24.8002V7.76706ZM7.20016 44.4337H33.5335V73.3671H7.20016V44.4337Z"/>
<path class="sp-blue" fill="#2F347F" d="M64.0668 62.2337C63.0668 63.0337 61.8668 63.5004 60.6001 63.5004C57.6668 63.5004 55.2668 61.1004 55.2668 58.1671C55.2668 55.2337 57.6668 52.8337 60.6001 52.8337C61.8668 52.8337 63.1335 53.3004 64.0668 54.0337C64.4668 54.3671 65.0668 54.3671 65.4001 53.9671C65.7335 53.5671 65.7335 52.9671 65.3335 52.6337C64.0668 51.5671 62.4001 50.9004 60.6668 50.9004C56.6668 50.9004 53.4668 54.1671 53.4668 58.1004C53.4668 62.0337 56.7335 65.3004 60.6668 65.3004C62.4001 65.3004 64.0001 64.7004 65.3335 63.6337C65.7335 63.3004 65.8001 62.7004 65.4668 62.3004C65.0668 61.9671 64.4668 61.9004 64.0668 62.2337Z"/>
<path class="sp-red" fill="#DF232F" d="M74.4669 42.5664L69.0002 36.8331C68.8002 36.6331 68.6002 36.5664 68.3336 36.5664H61.4002C60.8669 36.5664 60.4669 36.9664 60.4669 37.4997C60.4669 38.0331 60.8669 38.4331 61.4002 38.4331H67.9336L71.8669 42.5664H45.6002C45.0669 42.5664 44.6669 42.9664 44.6669 43.4997V72.0331L40.9336 68.4331V46.1664C40.9336 45.6331 40.5336 45.2331 40.0002 45.2331C39.4669 45.2331 39.0669 45.6331 39.0669 46.1664V68.8331C39.0669 69.0997 39.2002 69.2997 39.3336 69.4997L44.9336 74.9664C45.0002 75.0331 45.1336 75.0997 45.2002 75.1664C45.3336 75.2331 45.4002 75.2331 45.5336 75.2331H73.7336C74.2669 75.2331 74.6669 74.8331 74.6669 74.2997V43.4997C74.6669 43.4331 74.6669 43.3664 74.6669 43.2997C74.7336 43.0331 74.6669 42.7664 74.4669 42.5664ZM72.8669 73.3664H46.5336V44.4331H72.8669V73.3664Z"/>
<path class="sp-red" fill="#DF232F" d="M21.3336 51.5001C21.2003 51.1668 20.8669 50.9668 20.4669 50.9668C20.0669 50.9668 19.7336 51.1668 19.6003 51.5001L14.2003 63.4335C14.0003 63.9001 14.2003 64.5001 14.6669 64.7001C15.1336 64.9001 15.7336 64.7001 15.9336 64.2335L17.2003 61.4335H23.7336L25.0003 64.2335C25.1336 64.5668 25.5336 64.7668 25.8669 64.7668C26.0003 64.7668 26.1336 64.7668 26.2669 64.7001C26.7336 64.5001 26.9336 63.9001 26.7336 63.4335L21.3336 51.5001ZM18.0669 59.5668L20.4669 54.2335L22.8669 59.5668H18.0669Z"/>
<path class="sp-red" fill="#DF232F" d="M42.0004 29.6997C44.0671 29.6997 45.7337 28.0331 45.7337 25.9664C45.7337 24.6331 45.0004 23.4331 44.0004 22.7664C44.6004 22.0997 44.9337 21.2331 44.9337 20.2997C44.9337 18.2331 43.2671 16.5664 41.2004 16.5664H37.3337C36.8004 16.5664 36.4004 16.9664 36.4004 17.4997V28.8331C36.4004 29.3664 36.8004 29.7664 37.3337 29.7664C37.4671 29.7664 37.6004 29.7664 37.6671 29.6997H42.0004ZM42.0004 27.8331H38.2671V24.0997H42.0004C43.0004 24.0997 43.8671 24.9664 43.8671 25.9664C43.8671 26.9664 43.0004 27.8331 42.0004 27.8331ZM43.0671 20.2997C43.0671 21.2997 42.2004 22.2331 41.2004 22.2331C41.0671 22.2331 40.8671 22.2331 40.8671 22.2331H38.2671V18.4331H41.2004C42.2004 18.4331 43.0671 19.2997 43.0671 20.2997Z"/>
</svg>
