<svg width="80" height="81" viewBox="0 0 80 81" fill="none" xmlns="http://www.w3.org/2000/svg">
<path class="sp-blue" fill="#2F347F" d="M49.8 25.6328H29.4667C27.5333 25.6328 26 27.2328 26 29.1661V58.5661C26 59.0995 26.4 59.4995 26.9333 59.4995C27.4667 59.4995 27.8667 59.0995 27.8667 58.5661V29.1661C27.8667 28.2328 28.6 27.4995 29.4667 27.4995H49.8C50.6667 27.4995 51.4 28.2328 51.4 29.1661V50.0995C51.4 50.6328 51.8 51.0328 52.3333 51.0328C52.8667 51.0328 53.2667 50.6328 53.2667 50.0995V29.1661C53.2667 27.2328 51.7333 25.6328 49.8 25.6328Z"/>
<path class="sp-blue" fill="#2F347F" d="M30.467 29.2324C29.9337 29.2324 29.5337 29.6324 29.5337 30.1658V34.4991C29.5337 35.9658 30.8004 37.2324 32.267 37.2324C33.7337 37.2324 35.0004 35.9658 35.0004 34.4991V31.0991H36.7337V38.6991C36.7337 40.1658 38.0004 41.4324 39.467 41.4324C40.9337 41.4324 42.2004 40.1658 42.2004 38.6991V31.0991H46.0004C46.5337 31.0991 46.9337 30.6991 46.9337 30.1658C46.9337 29.6324 46.5337 29.2324 46.0004 29.2324H41.3337C40.8004 29.2324 40.4004 29.6324 40.4004 30.1658V38.6991C40.4004 39.1658 40.0004 39.5658 39.5337 39.5658C39.067 39.5658 38.667 39.1658 38.667 38.6991V30.1658C38.667 29.6324 38.267 29.2324 37.7337 29.2324H34.1337C33.6004 29.2324 33.2004 29.6324 33.2004 30.1658V34.4991C33.2004 34.9658 32.8004 35.3658 32.3337 35.3658C31.867 35.3658 31.467 34.9658 31.467 34.4991V30.1658C31.4004 29.6324 30.9337 29.2324 30.467 29.2324Z"/>
<path class="sp-blue" fill="#2F347F" d="M45.4669 48.967C42.2002 48.9004 39.0002 50.367 36.9335 52.9004C34.8002 55.4337 34.0002 58.767 34.6669 62.0337C34.7335 62.5004 35.1335 62.767 35.6002 62.767C35.6669 62.767 35.7335 62.767 35.8002 62.767C39.0669 62.767 42.0669 61.367 44.2002 58.8337C46.3335 56.3004 47.1335 52.967 46.4669 49.7004C46.2669 49.3004 45.8669 48.967 45.4669 48.967ZM42.6002 57.6337C41.0002 59.567 38.7335 60.7004 36.3335 60.8337C36.0669 58.367 36.8002 55.967 38.3335 54.0337C39.9335 52.1004 42.2002 50.967 44.6002 50.8337C44.8669 53.3004 44.2002 55.767 42.6002 57.6337Z"/>
<path class="sp-blue" fill="#2F347F" d="M39.4669 68.8994C37.9336 67.5661 35.9336 66.9661 33.9336 67.2994C33.4669 67.3661 33.1336 67.7661 33.1336 68.1661C33.0002 70.1661 33.8669 72.0994 35.3336 73.4994C36.5336 74.5661 38.1336 75.1661 39.7336 75.1661C40.0669 75.1661 40.4669 75.1661 40.8002 75.0994C41.2669 75.0328 41.6002 74.6328 41.6002 74.2328C41.7336 72.1661 40.9336 70.2328 39.4669 68.8994ZM36.6002 72.0994C35.7336 71.2994 35.2002 70.2994 35.0669 69.0994C36.2002 69.0994 37.3336 69.4994 38.2002 70.2994C39.0669 71.0994 39.6002 72.0994 39.7336 73.2994C38.6002 73.2994 37.4669 72.8328 36.6002 72.0994Z"/>
<path class="sp-blue" fill="#2F347F" d="M47.3336 63.8333C42.8002 63.7666 19.6002 63.8333 5.73357 72.7666C5.2669 73.0333 5.13357 73.6333 5.4669 74.1C5.6669 74.3666 5.93357 74.5666 6.2669 74.5666C6.4669 74.5666 6.60024 74.5 6.80024 74.4333C20.2002 65.8333 42.9336 65.7666 47.3336 65.8333C47.8669 65.8333 48.2669 65.4333 48.2669 64.9C48.2669 64.3 47.8669 63.9 47.3336 63.8333Z"/>
<path class="sp-red" fill="#DF232F" d="M39.4668 5.56701C39.1335 5.50035 38.7335 5.56701 38.4668 5.83368C38.2001 6.10035 38.1335 6.50035 38.3335 6.83368C39.2001 8.83368 39.2668 11.1003 38.4668 13.1003C37.7335 12.567 37.2001 11.9003 36.7335 11.167L36.6668 11.1003L36.6001 11.0337L36.5335 10.967L36.4668 10.9003C36.4668 10.9003 36.4001 10.9003 36.4001 10.8337C36.4001 10.8337 36.3335 10.8337 36.3335 10.767C36.3335 10.767 36.2668 10.767 36.2668 10.7003H36.2001C36.1335 10.7003 36.1335 10.7003 36.0668 10.7003H36.0001C35.9335 10.7003 35.9335 10.7003 35.8668 10.7003H35.8001C35.7335 10.7003 35.7335 10.7003 35.6668 10.7003H35.6001C35.6001 10.7003 35.5335 10.7003 35.5335 10.767C35.5335 10.767 35.4668 10.767 35.4668 10.8337C33.0001 12.367 31.4668 15.1003 31.4668 18.0337C31.4668 19.767 32.1335 21.7003 33.1335 23.1003C33.3335 23.367 33.6001 23.5003 33.8668 23.5003C34.0668 23.5003 34.2668 23.4337 34.4001 23.3003C34.8001 22.967 34.9335 22.367 34.6001 21.967C33.8001 20.9003 33.2668 19.367 33.2668 18.0337C33.2668 16.1003 34.2001 14.2337 35.6668 12.967C36.4001 13.9003 37.3335 14.7003 38.4001 15.3003C38.8668 15.567 39.4001 15.367 39.6668 14.9003C40.8001 12.8337 41.1335 10.367 40.6668 8.03368C45.8001 10.4337 46.3335 15.7003 46.3335 18.0337C46.3335 19.5003 45.8668 20.9003 45.0001 22.0337C44.6668 22.4337 44.7335 23.0337 45.1335 23.367C45.3335 23.5003 45.5335 23.567 45.7335 23.567C46.0001 23.567 46.2668 23.4337 46.4668 23.2337C47.6001 21.8337 48.2001 19.967 48.2001 18.1003C48.2668 11.7003 45.0668 7.16701 39.4668 5.56701Z"/>
<path class="sp-red" fill="#DF232F" d="M39.1336 17.9668C38.7336 18.3001 38.7336 18.9001 39.0669 19.3001C39.0669 19.3668 39.8669 20.2335 38.9336 22.1001C38.7336 22.5668 38.9336 23.1668 39.4003 23.3668C39.5336 23.4335 39.6669 23.4335 39.8003 23.4335C40.1336 23.4335 40.4669 23.2335 40.6669 22.9001C42.1336 19.7668 40.5336 18.0335 40.4669 17.9668C40.0669 17.6335 39.5336 17.6335 39.1336 17.9668Z"/>
<path class="sp-red" fill="#DF232F" d="M74.6667 65.8335C74.6667 61.3001 72.8 57.9001 70.4 57.9001C68 57.9001 66.1334 61.3001 66.1334 65.8335C66.1334 66.3668 66.5334 66.7668 67.0667 66.7668C67.6 66.7668 68 66.3668 68 65.8335C68 62.1668 69.4 59.7668 70.4 59.7668C71.4 59.7668 72.8 62.1001 72.8 65.8335C72.8 65.9001 72.8 65.9668 72.8 65.9668C72.8 66.0335 72.8 66.0335 72.8 66.1001C72.8 69.7668 70.8 73.2335 68.6667 73.2335C66.6667 73.2335 64.5334 69.9668 64.5334 65.1001V65.0335V64.9668C64.5334 60.5001 66.5334 57.2335 68.4 56.7668C68.8667 56.6335 69.2 56.2335 69.1334 55.7668C69.0667 55.3001 68.6667 54.9668 68.2 54.9668H59.9334C54.4 54.9668 49.8667 59.5001 49.8667 65.1001C49.8667 70.7001 54.4 75.2335 59.9334 75.2335H68.4667H68.5334C68.6 75.2335 68.6667 75.2335 68.6667 75.2335C72.2667 75.2335 74.7334 70.5668 74.7334 66.2335C74.6667 65.8335 74.6667 65.8335 74.6667 65.8335C74.6 65.7001 74.6667 65.9001 74.6667 65.8335ZM59.8667 56.7668H65.2C63.8 58.5001 62.8667 61.1001 62.6667 64.0335C57.1334 64.0335 55.4 64.2335 52.0667 67.3668C51.8667 66.6335 51.7334 65.8335 51.7334 65.0335C51.6667 60.5001 55.3334 56.7668 59.8667 56.7668ZM59.8667 73.2335C56.8667 73.2335 54.2667 71.6335 52.8667 69.1668C56 66.1001 57.1334 65.9001 62.6667 65.9001C62.8 68.9001 63.7334 71.5668 65.1334 73.1668H59.8667V73.2335Z"/>
<path class="sp-red" fill="#DF232F" d="M69.6669 70.7675C70.6669 69.6341 71.3335 67.5675 71.3335 65.2341C71.3335 64.7008 70.9335 64.3008 70.4002 64.3008C69.8669 64.3008 69.4669 64.7008 69.4669 65.2341C69.4669 67.0341 69.0002 68.7008 68.3335 69.5008C68.0002 69.9008 68.0002 70.5008 68.4002 70.8341C68.6002 70.9675 68.8002 71.1008 69.0002 71.1008C69.2002 71.1008 69.4669 71.0341 69.6669 70.7675Z"/>
</svg>
