<svg width="80" height="81" viewBox="0 0 80 81" fill="none" xmlns="http://www.w3.org/2000/svg">
<path class="sp-red" fill="#DF232F" d="M48.2667 25.6332C47.2001 22.3665 43.8001 17.9665 40.9334 15.0332L40.8667 14.9665L38.1334 12.6999C38.8667 11.3665 40.5334 8.49987 41.0001 7.4332C41.1334 7.16654 41.1334 6.76654 40.9334 6.49987C40.7334 6.2332 40.4667 6.0332 40.1334 6.0332H28.4667C28.1334 6.0332 27.8667 6.2332 27.6667 6.49987C27.4667 6.76654 27.4667 7.09987 27.6001 7.4332C28.0667 8.4332 29.6667 11.2332 30.4667 12.6332C26.4667 15.6332 21.6667 21.8332 20.4001 25.6332C19.9334 26.8999 19.7334 28.3665 19.7334 29.7665C19.7334 30.2999 20.1334 30.6999 20.6667 30.6999C21.2001 30.6999 21.6001 30.2999 21.6001 29.7665C21.6001 28.5665 21.8001 27.2999 22.2001 26.2332C23.4001 22.6332 28.2667 16.4999 32.0001 13.8332H36.2001C36.3334 13.8332 36.4001 13.8332 36.4667 13.7665L39.5334 16.3665C42.7334 19.6332 45.5334 23.6332 46.3334 26.1665C47.1334 28.7665 47.3334 32.4999 45.6667 34.7665C44.7334 36.0332 43.2667 36.6999 41.3334 36.6999H33.3334C32.8001 36.6999 32.4001 37.0999 32.4001 37.6332C32.4001 38.1665 32.8001 38.5665 33.3334 38.5665H41.3334C43.8667 38.5665 45.9334 37.6332 47.2001 35.8999C49.6667 32.7665 49.0001 27.9665 48.2667 25.6332ZM30.0667 7.96654H38.6667C37.9334 9.29987 36.8667 11.0999 36.4001 11.9665C36.3334 11.9665 36.3334 11.9665 36.2667 11.9665H32.2667C31.8001 11.0999 30.8001 9.36654 30.0667 7.96654Z"/>
<path class="sp-red" fill="#DF232F" d="M37.2667 32.9665C37.8001 32.9665 38.2001 32.5665 38.2001 32.0332C38.2001 31.4999 37.8001 31.0999 37.2667 31.0999C35.6001 31.0999 34.1334 30.2332 33.3334 28.8999H36.7334C37.2667 28.8999 37.6667 28.4999 37.6667 27.9665C37.6667 27.4332 37.2667 27.0332 36.7334 27.0332H32.6667C32.6667 26.8332 32.6667 26.6999 32.6667 26.4999C32.6667 26.2999 32.6667 26.0999 32.7334 25.8999H36.8001C37.3334 25.8999 37.7334 25.4999 37.7334 24.9665C37.7334 24.4332 37.3334 24.0332 36.8001 24.0332H33.4001C34.2001 22.7665 35.6667 21.8999 37.2667 21.8999C37.8001 21.8999 38.2001 21.4999 38.2001 20.9665C38.2001 20.4332 37.8001 20.0332 37.2667 20.0332C34.5334 20.0332 32.2667 21.6999 31.2667 24.0332H30.6667C30.1334 24.0332 29.7334 24.4332 29.7334 24.9665C29.7334 25.4999 30.1334 25.8999 30.6667 25.8999H30.8001C30.8001 26.0999 30.8001 26.2999 30.8001 26.4999C30.8001 26.6999 30.8001 26.8332 30.8001 27.0332H30.6667C30.1334 27.0332 29.7334 27.4332 29.7334 27.9665C29.7334 28.4999 30.1334 28.8999 30.6667 28.8999H31.2001C32.2001 31.2332 34.5334 32.9665 37.2667 32.9665Z"/>
<path class="sp-blue" fill="#2F347F" d="M74.6667 59.0344C74.6667 58.7677 74.6667 58.5677 74.4667 58.3677L64.0001 45.4344C64.0001 45.3677 63.9334 45.3677 63.8667 45.3677C63.8667 45.3677 63.8667 45.3677 63.8001 45.301C63.8001 45.301 63.8001 45.301 63.7334 45.301C63.6667 45.2344 63.6001 45.2344 63.5334 45.2344H63.4667C63.4667 45.2344 63.4667 45.2344 63.4001 45.2344H63.3334H63.2667H63.2001H49.1334C48.8667 45.2344 48.6001 45.3677 48.4001 45.5677L37.9334 58.501C37.8667 58.5677 37.8667 58.6344 37.8001 58.701C37.8001 58.7677 37.7334 58.8344 37.7334 58.901V58.9677V59.0344V74.2344C37.7334 74.7677 38.1334 75.1677 38.6667 75.1677H73.7334C74.2667 75.1677 74.6667 74.7677 74.6667 74.2344V59.101V59.0344ZM52.0001 73.3677H39.6001V60.0344H52.0001V73.3677ZM40.6001 58.1677L49.5334 46.9677H61.3334L52.4001 58.1677H40.6001ZM65.4001 73.3677H61.3334V66.5677C61.3334 65.4344 62.2667 64.5677 63.4001 64.5677C64.5334 64.5677 65.4667 65.501 65.4667 66.5677V73.3677H65.4001ZM67.3334 73.3677V66.5677C67.3334 64.4344 65.5334 62.701 63.4001 62.701C61.2001 62.701 59.4667 64.4344 59.4667 66.5677V73.3677H53.9334V59.3677L63.3334 47.5677L72.8001 59.2344V73.3677H67.3334Z"/>
<path class="sp-blue" fill="#2F347F" d="M41.5335 43.4339C41.3335 41.9672 40.1335 40.8339 38.6668 40.7672H38.6002L30.6002 41.0339C30.7335 39.5005 29.7335 37.9672 28.1335 37.5005L23.4668 36.2339L20.0668 33.7005C18.0002 32.1672 15.5335 31.3672 12.9335 31.3672H6.26683C5.7335 31.3672 5.3335 31.7672 5.3335 32.3005C5.3335 32.8339 5.7335 33.2339 6.26683 33.2339H12.8668C15.0668 33.2339 17.1335 33.9005 18.8668 35.2339L22.4668 37.8339C22.5335 37.9005 22.6668 37.9672 22.8002 37.9672L27.6002 39.3005C28.4002 39.5672 28.8668 40.3005 28.6668 41.1005C28.6002 41.5005 28.3335 41.7672 28.0002 41.9672C27.6668 42.1672 27.2002 42.2339 26.8002 42.1005L18.1335 39.6339C17.6002 39.5005 17.1335 39.7672 16.9335 40.3005C16.8002 40.8339 17.0668 41.3005 17.6002 41.5005L26.2668 43.9672C26.6002 44.0339 26.9335 44.1005 27.2002 44.1005C27.8002 44.1005 28.4002 43.9672 28.9335 43.6339C29.2668 43.4339 29.5335 43.1672 29.8002 42.9005C29.8668 42.9005 29.9335 42.9005 30.0002 42.9005L38.5335 42.6339C39.0668 42.7005 39.5335 43.1005 39.6002 43.6339C39.6668 44.1672 39.3335 44.7005 38.8002 44.8339L29.1335 46.9005C26.4668 47.5005 23.6002 47.1005 21.2002 45.9005L13.9335 42.3005C13.5335 42.1005 13.1335 42.0339 12.6668 42.0339H6.26683C5.7335 42.0339 5.3335 42.5005 5.3335 42.9672C5.3335 43.4339 5.7335 43.9005 6.26683 43.9005H12.7335C12.8668 43.9005 13.0002 43.9005 13.1335 43.9672L20.4002 47.5672C22.3335 48.5005 24.4668 49.0339 26.6668 49.0339C27.6668 49.0339 28.6668 48.9005 29.6002 48.7005L39.3335 46.6339C40.7335 46.3672 41.7335 44.9672 41.5335 43.4339Z"/>
</svg>
