<svg width="80" height="81" viewBox="0 0 80 81" fill="none" xmlns="http://www.w3.org/2000/svg">
<path class="sp-blue" fill="#2F347F" d="M57.8666 5.90039C57.7332 5.90039 57.5999 5.90039 57.4666 5.90039C57.3999 5.90039 57.3332 5.90039 57.2666 5.90039H13.2666C8.93323 5.90039 5.3999 9.43372 5.3999 13.7671V18.1671V19.2337V74.2337C5.3999 74.7671 5.7999 75.1671 6.33324 75.1671H34.5999C35.1332 75.1671 35.5332 74.7671 35.5332 74.2337C35.5332 73.7004 35.1332 73.3004 34.5999 73.3004H7.33324V19.2337V18.1671V13.7671C7.33324 10.5004 9.9999 7.76706 13.3332 7.76706H52.7999C51.1332 9.23372 50.0666 11.3671 50.0666 13.7671V43.9004C50.0666 44.4337 50.4666 44.8337 50.9999 44.8337C51.5332 44.8337 51.9332 44.4337 51.9332 43.9004V13.7671C51.9332 10.5004 54.5999 7.76706 57.9332 7.76706C61.2666 7.76706 63.9332 10.4337 63.9332 13.7671V18.3004H55.3999C54.8666 18.3004 54.4666 18.7004 54.4666 19.2337C54.4666 19.7671 54.8666 20.1671 55.3999 20.1671H64.7999C65.3332 20.1671 65.7332 19.7671 65.7332 19.2337V13.7671C65.6666 9.43372 62.1999 5.90039 57.8666 5.90039Z"/>
<path class="sp-blue" fill="#2F347F" d="M41.933 19.5H15.133C14.5997 19.5 14.1997 19.9 14.1997 20.4333C14.1997 20.9667 14.5997 21.3667 15.133 21.3667H41.933C42.4664 21.3667 42.8664 20.9667 42.8664 20.4333C42.8664 19.9 42.4664 19.5 41.933 19.5Z"/>
<path class="sp-blue" fill="#2F347F" d="M41.933 25.5H15.133C14.5997 25.5 14.1997 25.9 14.1997 26.4333C14.1997 26.9667 14.5997 27.3667 15.133 27.3667H41.933C42.4664 27.3667 42.8664 26.9667 42.8664 26.4333C42.8664 25.9 42.4664 25.5 41.933 25.5Z"/>
<path class="sp-blue" fill="#2F347F" d="M41.933 31.5H15.133C14.5997 31.5 14.1997 31.9 14.1997 32.4333C14.1997 32.9667 14.5997 33.3667 15.133 33.3667H41.933C42.4664 33.3667 42.8664 32.9667 42.8664 32.4333C42.8664 31.9 42.4664 31.5 41.933 31.5Z"/>
<path class="sp-blue" fill="#2F347F" d="M41.933 37.5H15.133C14.5997 37.5 14.1997 37.9 14.1997 38.4333C14.1997 38.9667 14.5997 39.3667 15.133 39.3667H41.933C42.4664 39.3667 42.8664 38.9667 42.8664 38.4333C42.8664 37.9 42.4664 37.5 41.933 37.5Z"/>
<path class="sp-blue" fill="#2F347F" d="M41.933 43.5H15.133C14.5997 43.5 14.1997 43.9 14.1997 44.4333C14.1997 44.9667 14.5997 45.3667 15.133 45.3667H41.933C42.4664 45.3667 42.8664 44.9667 42.8664 44.4333C42.8664 43.9 42.4664 43.5 41.933 43.5Z"/>
<path class="sp-blue" fill="#2F347F" d="M41.933 49.5H15.133C14.5997 49.5 14.1997 49.9 14.1997 50.4333C14.1997 50.9667 14.5997 51.3667 15.133 51.3667H41.933C42.4664 51.3667 42.8664 50.9667 42.8664 50.4333C42.8664 49.9 42.4664 49.5 41.933 49.5Z"/>
<path class="sp-blue" fill="#2F347F" d="M17.9332 57.2995C17.3999 57.2328 16.9332 57.5661 16.8666 58.0995L15.2666 67.5661C15.1999 68.0328 15.4666 68.4328 15.8666 68.6328C15.9999 68.6995 16.0666 68.6995 16.1999 68.6995C16.5332 68.6995 16.8666 68.4995 16.9999 68.2328L20.0666 62.7661L21.5332 65.8328C21.6666 66.0995 21.9332 66.2995 22.2666 66.3661C22.5999 66.4328 22.9332 66.2995 23.1332 66.0328L25.4666 63.0995L26.7999 65.1661C26.9332 65.3661 27.1999 65.5661 27.4666 65.5661C27.7332 65.6328 27.9999 65.5661 28.1999 65.3661L32.1332 62.2328C32.5332 61.8995 32.5999 61.2995 32.2666 60.8995C31.9332 60.4995 31.3332 60.4328 30.9332 60.7661L27.7999 63.2995L26.3332 61.0328C26.1999 60.7661 25.8666 60.6328 25.5999 60.6328C25.2666 60.6328 24.9999 60.7661 24.7999 60.9661L22.5999 63.6995L20.9999 60.2995C20.8666 59.9661 20.5332 59.7661 20.1999 59.7661C19.8666 59.7661 19.5332 59.9661 19.3332 60.2328L18.0666 62.5661L18.7332 58.4995C18.7999 57.8328 18.4666 57.3661 17.9332 57.2995Z"/>
<path class="sp-red" fill="#DF232F" d="M73.7334 42.0329L72.2667 40.8996C73.1334 38.6329 72.4667 35.9663 70.4667 34.4329C68.0001 32.5663 64.4667 32.9663 62.6001 35.4329L42.6001 61.2329C42.2667 61.6329 42.3334 62.2329 42.8001 62.5663L43.6667 63.2329L40.6001 67.2329C40.1334 67.8329 39.9334 68.6329 40.0001 69.4329C40.0667 70.0996 40.4001 70.6996 40.9334 71.1663L39.0667 73.6329C38.7334 74.0329 38.8001 74.6329 39.2667 74.9662C39.4667 75.0996 39.6667 75.1663 39.8667 75.1663C40.1334 75.1663 40.4001 75.0329 40.6001 74.8329L42.4667 72.3663C42.9334 72.6996 43.4667 72.8329 44.0001 72.8329C44.8667 72.8329 45.7334 72.4329 46.3334 71.6996L49.4001 67.6996L50.2667 68.3663C50.4001 68.4996 50.6667 68.5662 50.8667 68.5662C50.9334 68.5662 50.9334 68.5662 51.0001 68.5662C51.2667 68.5662 51.4667 68.4329 51.6001 68.2329L71.3334 42.5663L72.6001 43.5663C73.1334 43.9663 73.2001 44.6996 72.8001 45.2329L66.3334 53.5663C66.0001 53.9663 66.0667 54.5663 66.5334 54.8996C66.7334 55.0329 66.9334 55.0996 67.1334 55.0996C67.4001 55.0996 67.6667 54.9663 67.8667 54.7663L74.3334 46.4329C75.3334 45.0329 75.0667 43.0996 73.7334 42.0329ZM44.7334 70.5662C44.4001 71.0329 43.7334 71.0996 43.2667 70.7663L42.2001 69.9663C42.0001 69.7663 41.8667 69.5662 41.8001 69.2329C41.7334 68.9663 41.8667 68.6996 42.0001 68.4329L45.0667 64.4329L47.8001 66.5662L44.7334 70.5662ZM50.6001 66.2996L45.6667 62.4996L45.5334 62.3663L44.6667 61.6996L64.0667 36.6329C65.3334 35.0329 67.6667 34.6996 69.2667 35.9663C70.8667 37.2329 71.2001 39.5663 69.9334 41.1663L50.6001 66.2996Z"/>
</svg>
