<svg width="80" height="80" viewBox="0 0 80 80" fill="none" xmlns="http://www.w3.org/2000/svg">
<path class="sp-red" fill="#DF232F" d="M70.8665 46.2008H64.4665V40.4674C64.4665 37.8674 62.3999 35.8008 59.7999 35.8008H47.1999C44.5999 35.8008 42.5332 37.8674 42.5332 40.4674V46.2008H35.3999C33.2665 46.2008 31.5332 47.9341 31.5332 50.0674V52.8674C31.5332 52.9341 31.5332 52.9341 31.5332 53.0008C31.5332 53.0674 31.5332 53.0674 31.5332 53.1341V67.7341C31.5332 67.8008 31.5332 67.8008 31.5332 67.8674C31.5332 67.9341 31.5332 67.9341 31.5332 68.0008V70.8008C31.5332 72.9341 33.2665 74.6674 35.3999 74.6674H70.8665C72.9999 74.6674 74.7332 72.9341 74.7332 70.8008V50.1341C74.7999 47.9341 73.0665 46.2008 70.8665 46.2008ZM47.1332 37.7341H59.8665C61.3999 37.7341 62.5999 38.9341 62.5999 40.4674V46.2008H60.0665V41.2674C60.0665 40.7341 59.6665 40.3341 59.1332 40.3341H47.9332C47.3999 40.3341 46.9999 40.7341 46.9999 41.2674V46.2008H44.4665V40.4674H44.3999C44.3999 38.9341 45.5999 37.7341 47.1332 37.7341ZM58.1999 42.2008V46.2008H48.8665V42.2008H58.1999ZM35.3999 48.0674H37.4665V52.0674H33.3999V50.0674C33.3999 48.9341 34.3332 48.0674 35.3999 48.0674ZM33.3999 70.7341V68.7341H37.4665V72.6674H35.3999C34.3332 72.7341 33.3999 71.8674 33.3999 70.7341ZM66.9332 67.7341V72.6674H39.3332V67.8008C39.3332 67.2674 38.9332 66.8674 38.3999 66.8674H33.3999V53.9341H38.3999C38.9332 53.9341 39.3332 53.5341 39.3332 53.0008V48.0674H66.9332V53.0008C66.9332 53.5341 67.3332 53.9341 67.8665 53.9341H72.7999V66.8008H67.8665C67.3332 66.8008 66.9332 67.2008 66.9332 67.7341ZM72.8665 70.7341C72.8665 71.8674 71.9999 72.7341 70.8665 72.7341H68.8665V68.7341H72.8665V70.7341ZM72.8665 52.0674H68.8665V48.0674H70.8665C71.9999 48.0674 72.8665 48.9341 72.8665 50.0674V52.0674Z"/>
<path class="sp-blue" fill="#2F347F" d="M52.7332 57.667C52.5998 57.1337 52.1332 56.8004 51.5998 56.9337L42.4665 58.867C42.1999 58.9337 41.9999 59.067 41.8665 59.267C41.7332 59.467 41.6665 59.7337 41.7332 60.0004L42.7998 64.867C42.8665 65.3337 43.2665 65.6004 43.7332 65.6004C43.7999 65.6004 43.8665 65.6004 43.9332 65.6004L53.0665 63.667C53.3332 63.6004 53.5332 63.467 53.6665 63.267C53.7998 63.067 53.8665 62.8004 53.7998 62.5337L52.7332 57.667ZM44.4665 63.5337L43.7998 60.5337L51.0665 59.0004L51.7332 62.0004L44.4665 63.5337Z"/>
<path class="sp-blue" fill="#2F347F" d="M64.6664 59.6C64.3997 58.4 63.7331 57.4 62.7331 56.7334L62.5331 56.6C61.5331 55.9334 60.2664 55.7334 59.0664 55.9334C57.8664 56.2 56.8664 56.8667 56.2664 57.8667C55.5997 58.8667 55.3331 60.0667 55.5997 61.2667C55.8664 62.4667 56.5331 63.5334 57.5331 64.1334L57.7331 64.2667C58.4664 64.8 59.3331 65.0667 60.1997 65.0667C60.4664 65.0667 60.7997 65.0667 61.0664 65C62.2664 64.7334 63.2664 64.0667 63.9331 63C64.6664 62 64.8664 60.8 64.6664 59.6ZM62.3997 61.9334C61.9997 62.5334 61.3997 62.9334 60.7331 63.0667C60.0664 63.2 59.3997 63.0667 58.7997 62.6667L58.5331 62.5334C57.9331 62.2 57.5331 61.5334 57.3997 60.8667C57.2664 60.2 57.3997 59.4667 57.7997 58.8667C58.1997 58.2667 58.7331 57.8667 59.3997 57.7334C59.5997 57.6667 59.7997 57.6667 59.9331 57.6667C60.4664 57.6667 60.9331 57.8 61.3997 58.0667L61.5997 58.2C62.8664 59.1334 63.1997 60.8 62.3997 61.9334Z"/>
<path class="sp-blue" fill="#2F347F" d="M33.5329 19.0678H39.3329C40.1329 19.0678 40.8662 19.4012 41.4662 19.9345C42.3996 20.8678 43.5996 21.3345 44.9329 21.3345H50.3329C50.8662 21.3345 51.2662 20.9345 51.2662 20.4012C51.2662 19.8678 50.8662 19.4678 50.3329 19.4678H44.9329C44.1329 19.4678 43.3996 19.1345 42.7996 18.6012C41.8662 17.6678 40.6662 17.2012 39.3329 17.2012H33.5329C30.3329 17.2012 27.7329 19.8012 27.7329 23.0012V26.4012C27.7329 29.5345 30.2662 32.0678 33.3996 32.1345L35.7996 32.2012C37.3329 32.2012 38.5329 33.4678 38.5329 34.9345V39.7345C38.5329 40.2678 38.9329 40.6678 39.4662 40.6678C39.9996 40.6678 40.3996 40.2678 40.3996 39.7345V34.9345C40.3996 32.4012 38.3329 30.2678 35.7996 30.2678L33.3996 30.2012C31.3329 30.1345 29.5996 28.4012 29.5996 26.3345V22.9345C29.5996 20.8678 31.3996 19.0678 33.5329 19.0678Z"/>
<path class="sp-blue" fill="#2F347F" d="M28.6664 56.6676C26.5998 56.401 24.5331 55.8676 22.3998 54.9343C12.5998 50.801 6.79977 41.001 7.26644 30.9343H9.59977C11.3331 30.9343 13.0664 31.5343 14.3998 32.6676C17.3998 35.201 17.9331 39.601 15.6664 42.801L14.5331 44.401C14.1998 44.801 14.3331 45.401 14.7331 45.7343C14.8664 45.8676 15.0664 45.9343 15.2664 45.9343C15.5331 45.9343 15.8664 45.801 16.0664 45.5343L17.1998 43.9343C19.9998 40.001 19.3331 34.401 15.5998 31.2676C13.9331 29.8676 11.7331 29.0676 9.5331 29.0676H7.3331C7.59977 26.801 8.19977 24.601 9.1331 22.401C11.7331 16.2676 16.5331 11.5343 22.6664 9.06763C27.3998 7.13429 32.4664 6.73429 37.3331 7.80096V8.40096C37.3331 8.93429 36.9331 9.40096 36.3331 9.40096C34.7331 9.40096 33.4664 10.6676 33.4664 12.2676V13.0676C33.4664 14.6676 34.7331 15.9343 36.3331 15.9343H36.7998C37.5331 15.9343 38.2664 15.6676 38.7998 15.1343L41.1998 12.7343C41.3998 12.601 41.7331 12.601 41.9998 12.8676L45.5998 16.4676C45.7998 16.6676 45.9998 16.7343 46.2664 16.7343C46.5331 16.7343 46.7331 16.6676 46.9331 16.4676C47.3331 16.0676 47.3331 15.4676 46.9331 15.1343L43.3331 11.5343C42.3998 10.601 40.9998 10.5343 39.9998 11.3343C39.9331 11.3343 39.9331 11.401 39.8664 11.401L37.3998 13.8676C37.1998 14.0676 36.9998 14.1343 36.7331 14.1343H36.2664C35.7331 14.1343 35.2664 13.6676 35.2664 13.1343V12.3343C35.2664 11.801 35.6664 11.3343 36.2664 11.3343C37.8664 11.3343 39.1331 10.0676 39.1331 8.46763V8.33429C39.9331 8.60096 40.7331 8.86763 41.5331 9.20096C51.3331 13.201 57.3998 22.9343 56.7998 33.3343C56.7998 33.8676 57.1998 34.2676 57.6664 34.3343C58.1998 34.3343 58.5998 33.9343 58.6664 33.4676C59.2664 22.2676 52.7331 11.801 42.3998 7.46763C35.8664 4.66763 28.5998 4.60096 21.9998 7.26763C15.3998 9.93429 10.1998 15.0676 7.46644 21.6676C1.7331 35.2676 8.1331 50.9343 21.6664 56.6676C23.9998 57.6676 26.1998 58.2676 28.4664 58.5343C28.5331 58.5343 28.5331 58.5343 28.5998 58.5343C29.0664 58.5343 29.4664 58.201 29.5331 57.7343C29.5998 57.201 29.1998 56.7343 28.6664 56.6676Z"/>
</svg>
