<svg width="80" height="81" viewBox="0 0 80 81" fill="none" xmlns="http://www.w3.org/2000/svg">
<path class="sp-blue" fill="#2F347F" d="M49.6001 75.366C49.0668 75.366 48.6668 74.966 48.6668 74.4326C48.6668 71.166 46.8668 68.2326 44.0001 66.6993C43.0001 67.8326 41.5335 68.4993 40.0001 68.4993C38.4668 68.4993 37.0001 67.8326 36.0001 66.6993C33.1335 68.166 31.3335 71.166 31.3335 74.4326C31.3335 74.966 30.9335 75.366 30.4001 75.366C29.8668 75.366 29.4668 74.966 29.4668 74.4326C29.4668 70.166 32.0001 66.2993 35.9335 64.6993C36.3335 64.4993 36.8668 64.6993 37.0668 65.0326C37.7335 66.0326 38.8001 66.6326 40.0001 66.6326C41.2001 66.6326 42.2668 66.0326 42.9335 65.0326C43.2001 64.6326 43.6668 64.4993 44.0668 64.6993C48.0001 66.366 50.5335 70.166 50.5335 74.4326C50.5335 74.966 50.0668 75.366 49.6001 75.366Z"/>
<path class="sp-blue" fill="#2F347F" d="M25.3999 75.366C24.8666 75.366 24.4666 74.966 24.4666 74.4326C24.4666 71.166 22.6666 68.2326 19.7999 66.6993C18.7999 67.8326 17.3333 68.4993 15.7999 68.4993C14.2666 68.4993 12.7999 67.8326 11.7999 66.6993C8.93327 68.166 7.13327 71.166 7.13327 74.4326C7.13327 74.966 6.73327 75.366 6.19993 75.366C5.6666 75.366 5.2666 74.966 5.2666 74.4326C5.2666 70.166 7.79994 66.2993 11.7333 64.6993C12.1333 64.4993 12.6666 64.6993 12.8666 65.0326C13.5333 66.0326 14.5999 66.6326 15.7999 66.6326C16.9999 66.6326 18.0666 66.0326 18.7333 65.0326C18.9999 64.6326 19.4666 64.4993 19.8666 64.6993C23.7999 66.366 26.3333 70.166 26.3333 74.4326C26.3333 74.966 25.9333 75.366 25.3999 75.366Z"/>
<path class="sp-blue" fill="#2F347F" d="M73.6665 75.366C73.1332 75.366 72.7332 74.966 72.7332 74.4326C72.7332 71.166 70.9332 68.2326 68.0665 66.6993C67.0665 67.8326 65.5999 68.4993 64.0665 68.4993C62.5332 68.4993 61.0665 67.8326 60.0665 66.6993C57.1999 68.166 55.3999 71.166 55.3999 74.4326C55.3999 74.966 54.9999 75.366 54.4665 75.366C53.9332 75.366 53.5332 74.966 53.5332 74.4326C53.5332 70.166 56.0665 66.2993 59.9999 64.6993C60.3999 64.4993 60.9332 64.6993 61.1332 65.0326C61.7999 66.0326 62.8665 66.6326 64.0665 66.6326C65.2665 66.6326 66.3332 66.0326 66.9999 65.0326C67.2665 64.6326 67.7332 64.4993 68.1332 64.6993C72.0665 66.366 74.5999 70.166 74.5999 74.4326C74.5999 74.966 74.1999 75.366 73.6665 75.366Z"/>
<path class="sp-blue" fill="#2F347F" d="M64.0002 63.6995C60.6002 63.6995 57.7335 61.2328 57.4002 58.0328C57.4002 57.9661 57.3335 57.8328 57.3335 57.7661V56.8995C57.3335 53.4328 60.2668 50.6328 63.9335 50.6328C67.3335 50.6328 70.2002 53.0995 70.5335 56.2995C70.5335 56.3661 70.6002 56.4995 70.6002 56.5661V57.4328C70.6668 60.8995 67.6668 63.6995 64.0002 63.6995ZM59.2668 57.5661C59.2668 57.6328 59.2668 57.6328 59.2668 57.6995C59.4002 60.0328 61.4668 61.8328 64.0002 61.8328C66.6002 61.8328 68.7335 59.8328 68.7335 57.4328V56.8328C68.7335 56.7661 68.7335 56.7661 68.7335 56.6995C68.6002 54.3661 66.5335 52.5661 64.0002 52.5661C61.4002 52.5661 59.2668 54.5661 59.2668 56.9661V57.5661Z"/>
<path class="sp-blue" fill="#2F347F" d="M39.9333 63.6995C36.5333 63.6995 33.6666 61.2328 33.3333 58.0328C33.3333 57.9661 33.2666 57.8328 33.2666 57.7661V56.8995C33.2666 53.4328 36.1999 50.6328 39.8666 50.6328C43.2666 50.6328 46.1333 53.0995 46.4666 56.2995C46.4666 56.3661 46.5333 56.4995 46.5333 56.5661V57.4328C46.5333 60.8995 43.5999 63.6995 39.9333 63.6995ZM35.1999 57.5661C35.1999 57.6328 35.1999 57.6328 35.1999 57.6995C35.3333 60.0328 37.3999 61.8328 39.9333 61.8328C42.5333 61.8328 44.6666 59.8328 44.6666 57.4328V56.8328C44.6666 56.7661 44.6666 56.7661 44.6666 56.6995C44.5333 54.3661 42.4666 52.5661 39.9333 52.5661C37.3333 52.5661 35.1999 54.5661 35.1999 56.9661V57.5661Z"/>
<path class="sp-blue" fill="#2F347F" d="M15.8 63.6995C12.4 63.6995 9.5333 61.2328 9.19997 58.0328C9.19997 57.9661 9.1333 57.8328 9.1333 57.7661V56.8995C9.1333 53.4328 12.0666 50.6328 15.7333 50.6328C19.1333 50.6328 22 53.0995 22.3333 56.2995C22.3333 56.3661 22.4 56.4995 22.4 56.5661V57.4328C22.4 60.8995 19.4666 63.6995 15.8 63.6995ZM11.0666 57.5661C11.0666 57.6328 11.0666 57.6328 11.0666 57.6995C11.2 60.0328 13.2666 61.8328 15.8 61.8328C18.4 61.8328 20.5333 59.8328 20.5333 57.4328V56.8328C20.5333 56.7661 20.5333 56.7661 20.5333 56.6995C20.4 54.3661 18.3333 52.5661 15.8 52.5661C13.2 52.5661 11.0666 54.5661 11.0666 56.9661V57.5661Z"/>
<path class="sp-red" fill="#DF232F" d="M44.0665 39.3666H35.9998C35.4665 39.3666 35.0665 38.9666 35.0665 38.4333V36.2333C35.0665 35.8333 34.8665 35.4999 34.4665 35.2999C30.7332 33.2333 28.3332 29.3666 28.3332 25.0999C28.2665 18.8999 33.2665 13.6333 39.3998 13.2999C42.6665 13.0999 45.7332 14.2333 48.1332 16.4999C50.4665 18.7666 51.7998 21.7666 51.7998 25.0333C51.7998 29.3666 49.4665 33.2999 45.6665 35.3666C45.3332 35.5666 45.0665 35.8999 45.0665 36.2999V38.4999C45.0665 38.9666 44.5998 39.3666 44.0665 39.3666ZM36.9332 37.4999H43.1332V36.2333C43.1332 35.1666 43.7332 34.1666 44.7332 33.6333C47.9332 31.8999 49.8665 28.5666 49.8665 24.9666C49.8665 22.2333 48.7998 19.6999 46.7998 17.8333C44.7998 15.9666 42.2665 15.0333 39.4665 15.1666C34.3332 15.4333 30.1332 19.8999 30.1998 25.0333C30.1998 28.6333 32.1998 31.8999 35.3332 33.6333C36.3332 34.1666 36.9332 35.1666 36.9332 36.2333V37.4999Z"/>
<path class="sp-red" fill="#DF232F" d="M42.7332 42.6323H37.3332C36.7999 42.6323 36.3999 42.2323 36.3999 41.699C36.3999 41.1656 36.7999 40.7656 37.3332 40.7656H42.7332C43.2666 40.7656 43.6666 41.1656 43.6666 41.699C43.6666 42.2323 43.2666 42.6323 42.7332 42.6323Z"/>
<path class="sp-red" fill="#DF232F" d="M41.5334 45.8335H38.6667C38.1334 45.8335 37.7334 45.4335 37.7334 44.9001C37.7334 44.3668 38.1334 43.9668 38.6667 43.9668H41.5334C42.0667 43.9668 42.4667 44.3668 42.4667 44.9001C42.4667 45.4335 42.0001 45.8335 41.5334 45.8335Z"/>
<path class="sp-red" fill="#DF232F" d="M40.0002 11.4999C39.4669 11.4999 39.0669 11.0999 39.0669 10.5665V6.96654C39.0669 6.4332 39.4669 6.0332 40.0002 6.0332C40.5336 6.0332 40.9336 6.4332 40.9336 6.96654V10.5665C40.9336 11.0332 40.4669 11.4999 40.0002 11.4999Z"/>
<path class="sp-red" fill="#DF232F" d="M29.6665 15.699C29.3998 15.699 29.1998 15.6323 28.9998 15.4323L26.4665 12.899C26.0665 12.499 26.0665 11.899 26.4665 11.5656C26.8665 11.1656 27.4665 11.1656 27.7998 11.5656L30.3332 14.099C30.7332 14.499 30.7332 15.099 30.3332 15.4323C30.1332 15.6323 29.9332 15.699 29.6665 15.699Z"/>
<path class="sp-red" fill="#DF232F" d="M25.4 25.9663H21.8C21.2667 25.9663 20.8667 25.5663 20.8667 25.0329C20.8667 24.4996 21.2667 24.0996 21.8 24.0996H25.4C25.9334 24.0996 26.3334 24.4996 26.3334 25.0329C26.3334 25.5663 25.8667 25.9663 25.4 25.9663Z"/>
<path class="sp-red" fill="#DF232F" d="M27.0668 38.7673C26.8001 38.7673 26.6001 38.7007 26.4001 38.5007C26.0001 38.1007 26.0001 37.5007 26.4001 37.1673L28.9334 34.634C29.3334 34.234 29.9334 34.234 30.2668 34.634C30.6668 35.034 30.6668 35.634 30.2668 35.9673L27.7334 38.5007C27.5334 38.7007 27.2668 38.7673 27.0668 38.7673Z"/>
<path class="sp-red" fill="#DF232F" d="M52.6665 38.9001C52.3998 38.9001 52.1998 38.8335 51.9998 38.6335L49.4665 36.1001C49.0665 35.7001 49.0665 35.1001 49.4665 34.7668C49.8665 34.3668 50.4665 34.3668 50.7998 34.7668L53.3332 37.3001C53.7332 37.7001 53.7332 38.3001 53.3332 38.6335C53.1332 38.7668 52.8665 38.9001 52.6665 38.9001Z"/>
<path class="sp-red" fill="#DF232F" d="M58.0001 26.0991H54.4001C53.8668 26.0991 53.4668 25.6991 53.4668 25.1658C53.4668 24.6324 53.8668 24.2324 54.4001 24.2324H58.0001C58.5335 24.2324 58.9335 24.6324 58.9335 25.1658C58.9335 25.6991 58.5335 26.0991 58.0001 26.0991Z"/>
<path class="sp-red" fill="#DF232F" d="M50.2001 15.7673C49.9334 15.7673 49.7334 15.7007 49.5334 15.5007C49.1334 15.1007 49.1334 14.5007 49.5334 14.1673L52.0667 11.634C52.4667 11.234 53.0667 11.234 53.4001 11.634C53.8001 12.034 53.8001 12.634 53.4001 12.9673L50.8667 15.5007C50.7334 15.7007 50.4667 15.7673 50.2001 15.7673Z"/>
<path class="sp-red" fill="#DF232F" d="M40.0666 35.9663C39.5333 35.9663 39.1333 35.5663 39.1333 35.0329V28.0329C39.1333 27.4996 39.5333 27.0996 40.0666 27.0996C40.6 27.0996 41 27.4996 41 28.0329V35.0329C41 35.5663 40.6 35.9663 40.0666 35.9663Z"/>
</svg>
