<svg width="80" height="81" viewBox="0 0 80 81" fill="none" xmlns="http://www.w3.org/2000/svg">
<path class="sp-blue" fill="#2F347F" d="M39.9999 75.1004C20.9332 75.1004 5.3999 59.6337 5.3999 40.5004C5.3999 21.3671 20.9332 5.90039 39.9999 5.90039C59.0666 5.90039 74.5999 21.4337 74.5999 40.5004C74.5999 59.5671 59.0666 75.1004 39.9999 75.1004ZM39.9999 7.76706C21.9332 7.76706 7.26657 22.4337 7.26657 40.5004C7.26657 58.5671 21.9332 73.2337 39.9999 73.2337C58.0666 73.2337 72.7332 58.5671 72.7332 40.5004C72.7332 22.4337 58.0666 7.76706 39.9999 7.76706Z"/>
<path class="sp-red" fill="#DF232F" d="M35.3997 34.5001C35.933 34.5001 36.333 34.1001 36.333 33.5668C36.333 31.5001 37.9997 29.9001 39.9997 29.9001C41.9997 29.9001 43.6663 31.5668 43.6663 33.5668C43.6663 34.1001 44.0663 34.5001 44.5997 34.5001C45.133 34.5001 45.533 34.1001 45.533 33.5668C45.533 30.5001 42.9997 27.9668 39.933 27.9668C36.8663 27.9668 34.333 30.5001 34.333 33.5668C34.3997 34.1001 34.8663 34.5001 35.3997 34.5001Z"/>
<path class="sp-red" fill="#DF232F" d="M28.8665 27.1674C28.8665 27.4341 28.7998 27.7008 28.7998 27.9674C28.8665 34.1674 33.8665 39.1674 39.9998 39.1674C46.1332 39.1674 51.1332 34.1674 51.1332 28.0341C51.1332 27.7674 51.1332 27.5008 51.0665 27.2341C53.4665 26.5674 55.1332 24.3674 55.1332 21.9008C55.1332 18.8341 52.5998 16.3008 49.5332 16.3008C47.8665 16.3008 46.3332 17.0341 45.2665 18.3008C43.6665 17.4341 41.8665 16.9674 39.9332 16.9674C39.9332 16.9674 39.9332 16.9674 39.8665 16.9674C37.9332 16.9674 36.1332 17.4341 34.5332 18.3008C33.4665 17.0341 31.9332 16.3008 30.2665 16.3008C27.1998 16.3008 24.6665 18.8341 24.6665 21.9008C24.8665 24.3008 26.5332 26.5008 28.8665 27.1674ZM49.5998 18.1008C51.6665 18.1008 53.2665 19.7674 53.2665 21.7674C53.2665 23.3674 52.2665 24.7008 50.7998 25.2341C50.1998 22.8341 48.7998 20.7008 46.9332 19.2341C47.5998 18.5674 48.5998 18.1008 49.5998 18.1008ZM39.9998 18.7674C45.1332 18.7674 49.2665 22.9008 49.2665 28.0341C49.2665 33.1674 45.1332 37.3008 39.9332 37.3008C34.7998 37.3008 30.6665 33.1674 30.6665 28.0341C30.6665 22.9008 34.8665 18.7674 39.9998 18.7674ZM30.3998 18.1008C31.3998 18.1008 32.3332 18.5008 33.0665 19.2341C31.1998 20.7674 29.7998 22.8341 29.1998 25.2341C27.7332 24.7008 26.7332 23.3674 26.7332 21.7674C26.7332 19.7674 28.3998 18.1008 30.3998 18.1008Z"/>
<path class="sp-red" fill="#DF232F" d="M59.3332 36.1666C58.5999 34.9 57.3999 34.0333 55.9999 33.7666C54.5999 33.5 53.1332 33.8333 51.9999 34.7666L46.8665 38.8333C45.3332 40.0333 44.9332 42.1666 45.8665 43.8333C46.1999 44.5 46.7332 44.9666 47.3332 45.3L48.2665 50.0333C47.0665 49.7666 45.8665 49.9 44.7332 50.4333C44.7332 50.4333 44.7332 50.4333 44.6665 50.4333C44.5332 50.5 44.3332 50.5666 44.1999 50.7L44.1332 50.7666C43.9999 50.9 43.7999 50.9666 43.6665 51.1C43.5332 51.2333 43.3999 51.3666 43.2665 51.5L43.1999 51.5666C43.0665 51.6999 42.9332 51.9 42.8665 52.0333C42.7332 52.1666 42.6665 52.3666 42.5999 52.5666C42.5999 52.6333 42.5332 52.6333 42.5332 52.7C42.4665 52.8333 42.3999 52.9666 42.3332 53.1666C42.3332 53.2333 42.3332 53.2333 42.2665 53.2999C42.0665 53.6999 41.9999 53.8333 41.9999 54.0333C41.9999 54.1 41.9999 54.1 41.9999 54.1666C41.9999 54.2999 41.9332 54.4999 41.9332 54.6333C41.9332 54.6999 41.9332 54.7 41.9332 54.7666C41.9332 54.9666 41.9332 55.1666 41.9332 55.3666C41.9332 55.5666 41.9332 55.7666 41.9999 55.9666H39.9999H38.0665C38.0665 55.7666 38.1332 55.5666 38.1332 55.3666C38.1332 55.1666 38.1332 54.9666 38.1332 54.7666C38.1332 54.7 38.1332 54.6999 38.1332 54.6333C38.1332 54.4999 38.0665 54.2999 38.0665 54.1666C38.0665 54.1 38.0665 54.1 38.0665 54.0333C37.9999 53.8333 37.9999 53.6333 37.9332 53.5C37.9332 53.4333 37.9332 53.4333 37.8665 53.3666C37.7999 53.2333 37.7332 53.0333 37.6665 52.9C37.6665 52.8333 37.5999 52.8333 37.5999 52.7666C37.5332 52.5666 37.3999 52.4333 37.3332 52.2333C37.1999 52.1 37.1332 51.9 36.9999 51.7666C36.9999 51.7 36.9332 51.6999 36.9332 51.6333C36.7999 51.4999 36.6665 51.3 36.4665 51.1666C36.4665 51.1666 36.3999 51.1666 36.3999 51.1C36.3999 51.1 36.3999 51.1 36.3332 51.0333C36.1999 50.9 36.0665 50.8333 35.9332 50.7L35.8665 50.6333C35.7332 50.4999 35.5332 50.4333 35.3999 50.3666C35.0665 50.1666 34.6665 50.0333 34.2665 49.9666C33.4665 49.7666 32.6665 49.7666 31.8665 49.9666L32.7999 45.2333C33.3999 44.9 33.9332 44.3666 34.2665 43.7666C35.2665 42.0333 34.7999 39.9666 33.2665 38.7666L27.9999 34.7666C26.8665 33.9 25.3999 33.5 23.9999 33.7666C22.5999 34.0333 21.3332 34.9 20.6665 36.1666C19.9332 37.4333 19.7999 38.9 20.3332 40.3C20.7999 41.6333 21.8665 42.7666 23.1999 43.2333L29.3332 45.5666C29.7332 45.7 30.1999 45.8333 30.6665 45.8333L29.7332 50.5C29.7332 50.7 29.6665 50.8333 29.6665 51.0333C29.5999 51.1 29.5332 51.1 29.5332 51.1666L24.3999 55.4333C22.9332 56.6333 22.1332 58.4333 22.0665 60.2999C22.0665 62.1666 22.8665 63.9666 24.3332 65.2333C25.5332 66.2333 26.9999 66.7666 28.5332 66.7666C28.8665 66.7666 29.1999 66.7666 29.5332 66.7C31.3999 66.4333 32.9999 65.3 33.9999 63.7L37.4665 57.9666H39.9999H42.5999L46.0665 63.7C47.0665 65.3 48.6665 66.4333 50.5332 66.7C50.8665 66.7666 51.1999 66.7666 51.5332 66.7666C53.0665 66.7666 54.5332 66.2333 55.7332 65.2333C57.1999 64.0333 57.9999 62.2333 57.9999 60.2999C57.9999 58.4333 57.1332 56.6333 55.7332 55.4333L50.5999 51.1666C50.5332 51.1 50.4665 51.1 50.4665 51.0333C50.4665 50.8333 50.3999 50.6333 50.3999 50.5L49.4665 45.8333C49.9332 45.8333 50.3332 45.7666 50.7999 45.5666L56.9332 43.2333C58.2665 42.7 59.3332 41.6333 59.7999 40.3C60.1999 38.9666 60.0665 37.4333 59.3332 36.1666ZM23.8665 41.5C23.0665 41.1666 22.3999 40.5 22.0665 39.7C21.7332 38.8333 21.8665 37.9666 22.2665 37.1666C22.7332 36.3666 23.4665 35.8333 24.3332 35.7C24.5332 35.6333 24.7332 35.6333 24.9332 35.6333C25.5999 35.6333 26.2665 35.8333 26.7999 36.3L31.9332 40.3666C32.7332 40.9666 32.9332 42.1 32.4665 42.9666C32.2665 43.3666 31.8665 43.7 31.4665 43.8333C31.3999 43.8333 31.3999 43.8333 31.3332 43.9C30.8665 44.0333 30.3999 44.0333 29.9332 43.9L23.8665 41.5ZM32.3332 62.7C31.6665 63.8333 30.4665 64.6333 29.1999 64.8333C27.8665 65.0333 26.5332 64.7 25.5332 63.7666C24.5332 62.9 23.9332 61.6333 23.9332 60.2999C23.9332 58.9666 24.5332 57.7 25.5332 56.8333L30.6665 52.5666C30.7999 52.5 30.9332 52.3666 30.9999 52.2999C31.3332 52.0999 31.6665 51.9666 31.9999 51.8333C32.1332 51.7666 32.3332 51.7666 32.4665 51.7666H32.5332C32.6665 51.7666 32.7999 51.7666 32.9999 51.7666C33.0665 51.7666 33.0665 51.7666 33.1332 51.7666C33.2665 51.7666 33.3999 51.7666 33.5332 51.8333C33.5999 51.8333 33.6665 51.8333 33.7332 51.9C33.8665 51.9 33.9332 51.9666 34.0665 52.0333C34.1332 52.0333 34.1999 52.1 34.2665 52.1666C34.3332 52.2333 34.4665 52.2333 34.5332 52.2999C34.5999 52.3666 34.7332 52.4333 34.7999 52.5C34.8665 52.5666 34.9332 52.5666 34.9999 52.6333C35.1332 52.7666 35.2665 52.9 35.3999 53.0333C35.4665 53.1 35.4665 53.1666 35.5332 53.2333C35.5999 53.3666 35.6665 53.4333 35.7332 53.5666C35.7999 53.6333 35.7999 53.7 35.8665 53.7666C35.9332 53.9 35.9332 53.9666 35.9999 54.1C35.9999 54.1666 36.0665 54.2333 36.0665 54.3666C36.0665 54.4333 36.1332 54.5666 36.1332 54.7C36.1332 54.7666 36.1332 54.8999 36.1999 54.9666C36.1999 55.0333 36.1999 55.1666 36.1999 55.2333C36.1999 55.3666 36.1999 55.4333 36.1999 55.5666C36.1999 55.6333 36.1999 55.7 36.1999 55.8333C36.1999 55.9666 36.1332 56.0333 36.1332 56.1666C36.1332 56.2333 36.0665 56.3 36.0665 56.3666C35.9999 56.5 35.9999 56.5666 35.9332 56.7C35.8665 56.8333 35.7999 56.9666 35.7332 57.1666L32.3332 62.7ZM54.4665 56.9C55.4665 57.7666 56.0665 59.0333 56.0665 60.3666C56.0665 61.7 55.4665 62.9666 54.4665 63.8333C53.4665 64.6999 52.1332 65.0999 50.7999 64.8999C49.4665 64.6999 48.3332 63.9 47.6665 62.7666L44.1999 57.0333C44.1332 56.9 44.0665 56.7666 43.9999 56.5666C43.9332 56.4333 43.9332 56.3666 43.8665 56.2333C43.8665 56.1666 43.7999 56.1 43.7999 56.0333C43.7999 55.9 43.7332 55.8333 43.7332 55.7C43.7332 55.6333 43.7332 55.5 43.7332 55.4333C43.7332 55.3666 43.7332 55.2333 43.7332 55.1666C43.7332 55.1 43.7332 54.9666 43.7332 54.9C43.7332 54.8333 43.7332 54.6999 43.7999 54.6333C43.7999 54.4999 43.8665 54.4333 43.8665 54.2999C43.8665 54.2333 43.9332 54.1666 43.9332 54.0333C43.9999 53.9 43.9999 53.8333 44.0665 53.7666C44.1332 53.7 44.1332 53.6333 44.1999 53.5666C44.2665 53.5 44.3332 53.3666 44.3999 53.2999C44.4665 53.2333 44.4665 53.1666 44.5332 53.1C44.5999 53.0333 44.7332 52.9 44.7999 52.8333C44.8665 52.7666 44.8665 52.7666 44.9332 52.7C44.9999 52.6333 45.0665 52.6333 45.0665 52.5666C45.1332 52.5 45.2665 52.4333 45.3999 52.3666C45.4665 52.3 45.5999 52.2999 45.6665 52.2333C45.7332 52.1666 45.7999 52.1666 45.9332 52.1C46.0665 52.0333 46.1332 52.0333 46.2665 51.9666C46.3332 51.9666 46.3999 51.9 46.4665 51.9C46.5999 51.9 46.7332 51.8333 46.8665 51.8333C46.9332 51.8333 46.9999 51.8333 46.9999 51.8333C47.1332 51.8333 47.2665 51.8333 47.3999 51.8333H47.4665C47.5999 51.8333 47.7999 51.9 47.9332 51.9C48.2665 51.9666 48.5999 52.1 48.9332 52.3666C49.0665 52.4333 49.1999 52.4999 49.2665 52.6333L54.4665 56.9ZM57.9332 39.6333C57.5999 40.5 56.9999 41.1666 56.1332 41.4333L50.0665 43.8333C49.5999 44.0333 49.0665 44.0333 48.6665 43.8333C48.5999 43.8333 48.5999 43.8333 48.5332 43.7666C48.1332 43.5666 47.7999 43.3 47.5332 42.9C46.9999 42.0333 47.2665 40.9 48.0665 40.3L53.1999 36.2333C53.7332 35.8333 54.3999 35.5666 55.0665 35.5666C55.2665 35.5666 55.4665 35.5666 55.6665 35.6333C56.5332 35.8333 57.2665 36.3666 57.7332 37.1C58.1332 37.9 58.2665 38.8333 57.9332 39.6333Z"/>
<path class="sp-blue" fill="#2F347F" d="M35.4 25.5C34.7333 25.5 34.1333 26.0333 34.1333 26.7667C34.1333 27.5 34.6666 28.0333 35.4 28.0333C36.1333 28.0333 36.6666 27.5 36.6666 26.7667C36.6666 26.0333 36.0666 25.5 35.4 25.5Z"/>
<path class="sp-blue" fill="#2F347F" d="M39.9998 31.5664C38.1998 31.5664 37.7998 32.2331 37.7998 32.8331C37.7998 33.4331 38.1998 34.0997 39.9998 34.0997C41.7998 34.0997 42.1998 33.4331 42.1998 32.8331C42.1998 32.2997 41.7998 31.5664 39.9998 31.5664Z"/>
<path class="sp-blue" fill="#2F347F" d="M44.6666 25.5C43.9999 25.5 43.3999 26.0333 43.3999 26.7667C43.3999 27.5 43.9332 28.0333 44.6666 28.0333C45.3999 28.0333 45.9332 27.5 45.9332 26.7667C45.9332 26.0333 45.3332 25.5 44.6666 25.5Z"/>
</svg>
