<svg width="80" height="80" viewBox="0 0 80 80" fill="none" xmlns="http://www.w3.org/2000/svg">
<path d="M73.3999 41.6009L71.3333 35.8009C70.5999 33.6009 68.5333 32.0676 66.1333 32.0676H56.7333V20.2009C56.7333 19.6676 56.3333 19.2676 55.7999 19.2676H12.1999C11.6666 19.2676 11.2666 19.6676 11.2666 20.2009V52.9342C11.2666 53.0009 11.2666 53.0676 11.2666 53.1342V61.1342C11.2666 61.6676 11.6666 62.0676 12.1999 62.0676H16.7999C16.7999 62.2676 16.7999 62.4676 16.7999 62.6676C16.7999 67.0676 20.3333 70.6009 24.7333 70.6009C29.1333 70.6009 32.6666 67.0676 32.6666 62.6676C32.6666 62.4676 32.6666 62.2676 32.6666 62.0676H50.1999C50.1999 62.2676 50.1999 62.4676 50.1999 62.6676C50.1999 67.0676 53.7333 70.6009 58.1333 70.6009C62.5333 70.6009 65.9999 67.0676 65.9999 62.6676C65.9999 62.4676 65.9999 62.3342 65.9999 62.1342H74.0666C74.5999 62.1342 74.9999 61.7342 74.9999 61.2009V51.0009C74.9999 47.8009 74.4666 44.6676 73.3999 41.6009ZM13.1999 21.1342H54.8666V52.0676H13.1999V21.1342ZM24.7333 68.7342C21.3999 68.7342 18.6666 66.0009 18.6666 62.6676C18.6666 59.3342 21.3999 56.6009 24.7333 56.6009C27.4666 56.6009 29.7999 58.4676 30.5333 60.9342C30.5333 61.0009 30.5333 61.0676 30.5333 61.1342C30.5333 61.3342 30.5999 61.5342 30.7333 61.6676C30.7999 62.0009 30.7999 62.3342 30.7999 62.6676C30.7999 66.0009 28.0666 68.7342 24.7333 68.7342ZM58.0666 68.7342C54.7333 68.7342 51.9999 66.0009 51.9999 62.6676C51.9999 59.3342 54.7333 56.6009 58.0666 56.6009C61.3999 56.6009 64.1333 59.3342 64.1333 62.6676C64.1333 66.0009 61.3999 68.7342 58.0666 68.7342ZM58.0666 54.7342C54.5333 54.7342 51.5999 57.0009 50.5333 60.2009H32.2666C31.1999 57.0009 28.2666 54.7342 24.7333 54.7342C21.1999 54.7342 18.2666 57.0009 17.1999 60.2009H13.1333V53.9342H55.7333C56.2666 53.9342 56.6666 53.5342 56.6666 53.0009V33.9342H66.1333C67.6666 33.9342 69.0666 34.9342 69.5333 36.4009L71.5999 42.2676C72.5999 45.0676 73.0666 48.0676 73.0666 51.0676V52.8676C70.3333 53.2009 68.1999 55.5342 68.1999 58.3342V60.2676H65.5999C64.5999 57.0676 61.5999 54.7342 58.0666 54.7342ZM70.1333 60.2676V58.3342C70.1333 56.5342 71.3999 55.0676 73.1333 54.7342V60.2676H70.1333Z" fill="#2F347F"/>
<path d="M58.0665 59.4004C56.2665 59.4004 54.7998 60.8671 54.7998 62.6671C54.7998 64.4671 56.2665 65.9337 58.0665 65.9337C59.8665 65.9337 61.3331 64.4671 61.3331 62.6671C61.3331 60.8671 59.8665 59.4004 58.0665 59.4004ZM58.0665 64.0671C57.3331 64.0671 56.6665 63.4004 56.6665 62.6671C56.6665 61.9337 57.2665 61.2671 58.0665 61.2671C58.8665 61.2671 59.4665 61.8671 59.4665 62.6671C59.4665 63.4671 58.7998 64.0671 58.0665 64.0671Z" fill="#2F347F"/>
<path d="M24.7335 59.4004C22.9335 59.4004 21.4668 60.8671 21.4668 62.6671C21.4668 64.4671 22.9335 65.9337 24.7335 65.9337C26.5335 65.9337 28.0001 64.4671 28.0001 62.6671C28.0001 60.8671 26.5335 59.4004 24.7335 59.4004ZM24.7335 64.0671C24.0001 64.0671 23.3335 63.4004 23.3335 62.6671C23.3335 61.9337 23.9335 61.2671 24.7335 61.2671C25.5335 61.2671 26.1335 61.8671 26.1335 62.6671C26.1335 63.4671 25.4668 64.0671 24.7335 64.0671Z" fill="#2F347F"/>
<path d="M69.6667 46.6679C70.2667 46.0679 70.4001 45.2013 70.2001 44.4679L68.1334 38.0013C67.8001 37.0013 66.8667 36.4013 65.8001 36.4679H61.0667C59.7334 36.4679 58.7334 37.4679 58.7334 38.7346V43.0679C58.7334 44.1346 59.4667 45.0679 60.5334 45.3346L67.4001 47.4013C67.6001 47.4679 67.8001 47.4679 68.0001 47.4679C68.5334 47.4679 69.2001 47.2013 69.6667 46.6679ZM60.9334 43.4679H60.8667C60.7334 43.4013 60.5334 43.2679 60.5334 43.0679V38.7346C60.5334 38.5346 60.7334 38.3346 61.0001 38.3346H65.8001H65.8667C66.2001 38.3346 66.2667 38.4679 66.2667 38.5346L68.3334 45.0013C68.4001 45.1346 68.2667 45.2679 68.2667 45.3346C68.1334 45.4679 68.0001 45.5346 67.8001 45.5346L60.9334 43.4679Z" fill="#2F347F"/>
<path d="M51.1332 30.4018H46.1332C45.9999 30.3352 45.8665 30.3352 45.7332 30.3352C45.5999 30.3352 45.4665 30.3352 45.3332 30.4018H36.8665C36.3332 30.4018 35.9332 30.8018 35.9332 31.3352V47.8685H17.3999V38.0685H23.8665V42.2685C23.8665 42.8018 24.2665 43.2018 24.7999 43.2018H28.4665C28.9999 43.2018 29.3999 42.8018 29.3999 42.2685V38.0685H31.6665C31.7332 38.0685 31.7999 38.0685 31.8665 38.0685C32.3999 38.0685 32.7999 37.6685 32.7999 37.1352V25.4685C32.7999 24.9352 32.3999 24.5352 31.8665 24.5352H18.7999C18.2665 24.5352 17.8665 24.9352 17.8665 25.4685V36.2018H16.4665C15.9332 36.2018 15.5332 36.6018 15.5332 37.1352V48.8018C15.5332 49.3352 15.9332 49.7352 16.4665 49.7352H36.7999H36.8665H51.1332C51.6665 49.7352 52.0665 49.3352 52.0665 48.8018V31.3352C52.0665 30.8018 51.6665 30.4018 51.1332 30.4018ZM27.5332 41.3352H25.7332V38.0685H27.5332V41.3352ZM24.3999 26.4018H26.1999V30.0018H24.3999V26.4018ZM19.7332 26.4018H22.4665V30.9352C22.4665 31.4685 22.8665 31.8685 23.3999 31.8685H27.0665C27.5999 31.8685 27.9999 31.4685 27.9999 30.9352V26.4018H30.8665V36.2018H19.7332V26.4018ZM43.0665 32.2685H44.8665V35.3352H43.0665V32.2685ZM50.1999 47.8685H37.7999V32.2685H41.1332V36.2685C41.1332 36.8018 41.5332 37.2018 42.0665 37.2018H45.7332C46.2665 37.2018 46.6665 36.8018 46.6665 36.2685V32.2685H50.1332V47.8685H50.1999Z" fill="#DF232F"/>
<path d="M13.5333 68.2012H6.19993C5.6666 68.2012 5.2666 68.6012 5.2666 69.1345C5.2666 69.6678 5.6666 70.0678 6.19993 70.0678H13.5333C14.0666 70.0678 14.4666 69.6678 14.4666 69.1345C14.4666 68.6012 14.0666 68.2012 13.5333 68.2012Z" fill="#DF232F"/>
<path d="M6.19993 62.0678H7.53327C8.0666 62.0678 8.4666 61.6678 8.4666 61.1345C8.4666 60.6012 8.0666 60.2012 7.53327 60.2012H6.19993C5.6666 60.2012 5.2666 60.6012 5.2666 61.1345C5.2666 61.6678 5.6666 62.0678 6.19993 62.0678Z" fill="#DF232F"/>
<path d="M6.19993 66.0678H10.1999C10.7333 66.0678 11.1333 65.6678 11.1333 65.1345C11.1333 64.6012 10.7333 64.2012 10.1999 64.2012H6.19993C5.6666 64.2012 5.2666 64.6012 5.2666 65.1345C5.2666 65.6678 5.6666 66.0678 6.19993 66.0678Z" fill="#DF232F"/>
</svg>
