<svg width="80" height="81" viewBox="0 0 80 81" fill="none" xmlns="http://www.w3.org/2000/svg">
<path class="sp-red" fill="#DF232F" d="M19.8002 35.0992C18.2002 35.4325 16.6002 35.0325 15.2669 34.0992C13.9335 33.1659 13.0002 31.7659 12.7335 30.1659C12.6669 29.6325 12.1335 29.2992 11.6669 29.3659C11.1335 29.4325 10.8002 29.9659 10.8669 30.4325C11.2669 32.5659 12.4002 34.3659 14.2002 35.5659C15.5335 36.4992 17.0669 36.9659 18.6669 36.9659C19.1335 36.9659 19.6669 36.8992 20.1335 36.8325C20.6669 36.7659 21.0002 36.2325 20.8669 35.6992C20.8669 35.3659 20.3335 35.0325 19.8002 35.0992Z"/>
<path class="sp-red" fill="#DF232F" d="M32.8003 9.83203C28.4003 9.83203 24.8003 13.432 24.8003 17.832C24.8003 18.3654 25.2003 18.7654 25.7336 18.7654C26.267 18.7654 26.667 18.3654 26.667 17.832C26.667 14.432 29.4003 11.6987 32.8003 11.6987C33.3336 11.6987 33.7336 11.2987 33.7336 10.7654C33.7336 10.232 33.3336 9.83203 32.8003 9.83203Z"/>
<path class="sp-red" fill="#DF232F" d="M69.0001 19.2995C66.8668 16.3661 63.0668 15.2995 59.8668 16.4995C59.8668 15.7661 59.7334 15.0328 59.4668 14.2328C58.8001 12.1661 57.4001 10.5661 55.4668 9.56613C53.5334 8.56613 51.4001 8.4328 49.4001 9.09947C45.9334 10.2328 43.7334 13.4328 43.8668 16.8995C43.1334 16.6995 42.3334 16.5661 41.6001 16.5661C41.6001 16.5661 41.6001 16.5661 41.5334 16.5661H41.4668C37.1334 16.6328 33.6001 20.1661 33.6001 24.5661C33.6001 27.0995 34.8001 29.4995 36.8668 30.9661C37.2668 31.2995 37.8668 31.1661 38.2001 30.7661C38.5334 30.3661 38.4001 29.7661 38.0001 29.4328C36.4668 28.2995 35.5334 26.4328 35.5334 24.4995C35.5334 21.1661 38.2668 18.3661 41.6001 18.3661C41.7334 18.3661 41.8668 18.3661 41.9334 18.3661C42.0668 18.3661 42.1334 18.3661 42.2668 18.3661C42.4668 18.3661 42.6668 18.4328 42.8668 18.4328C44.1334 18.6995 45.3334 19.4328 46.1334 20.4328C46.3334 20.6328 46.6001 20.7661 46.8668 20.7661C47.0668 20.7661 47.2668 20.6995 47.4668 20.5661C47.8668 20.2328 47.9334 19.6328 47.6001 19.2328C47.1334 18.6328 46.5334 18.1661 45.9334 17.7661C45.3334 14.8328 47.0668 11.8328 50.0001 10.8328C51.5334 10.2995 53.2001 10.4328 54.6668 11.1661C56.0001 11.8328 57.0668 13.0328 57.6001 14.4328C57.6001 14.4995 57.6001 14.6328 57.6668 14.6995C58.1334 16.1661 58.0668 17.7661 57.4668 19.0995C57.2668 19.5661 57.4668 20.1661 57.9334 20.3661C58.0001 20.4995 58.1334 20.4995 58.2668 20.4995C58.6001 20.4995 59.0001 20.2995 59.1334 19.8995C59.3334 19.4995 59.4668 19.0995 59.5334 18.6328C62.1334 17.0995 65.6668 17.8328 67.4668 20.3661C68.4668 21.6995 68.8668 23.2995 68.6001 24.9661C68.3334 26.5661 67.5334 27.8995 66.2668 28.8328C66.2001 28.8328 66.1334 28.8995 66.1334 28.8995C65.6001 29.2328 65.0668 29.4995 64.5334 29.6995C64.1334 29.8328 63.7334 29.8995 63.3334 29.9661C63.2668 29.9661 63.2668 29.9661 63.2001 29.9661C62.4001 30.0328 61.5334 30.0328 60.7334 29.7661C60.2001 29.6328 59.7334 29.8995 59.5334 30.4328C59.4001 30.9661 59.6668 31.4328 60.2001 31.6328C60.9334 31.8328 61.7334 31.9661 62.4668 31.9661C62.6668 31.9661 62.8668 31.9661 63.0668 31.9661C65.2668 34.0995 65.6001 37.5661 63.8001 39.9661C61.8001 42.6328 57.9334 43.2328 55.2668 41.2995C54.4001 40.6328 53.6668 39.8328 53.3334 38.9661C53.3334 38.8995 53.2668 38.8328 53.2001 38.7661C52.9334 38.0995 52.7334 37.3661 52.7334 36.5661C52.7334 36.0328 52.2668 35.6328 51.7334 35.6328C51.2001 35.6328 50.8001 36.0995 50.8001 36.6328C50.8001 37.5661 51.0001 38.4995 51.3334 39.3661C50.0668 42.0995 46.8668 43.4995 43.9334 42.5661C42.4001 42.0328 41.1334 40.9661 40.4001 39.5661C39.6668 38.0995 39.5334 36.4995 40.0668 34.8995C40.4001 33.8995 41.0001 33.0328 41.7334 32.2995C41.8001 32.2328 41.8668 32.1661 41.8668 32.0995C42.5334 31.4995 43.3334 31.0995 44.2668 30.8328C44.8001 30.6995 45.0668 30.1661 44.9334 29.6995C44.8001 29.2328 44.2668 28.8995 43.8001 29.0328C41.2001 29.6995 39.0668 31.6995 38.2001 34.2995C38.1334 34.4328 38.1334 34.5661 38.1334 34.6995C37.6001 36.6328 37.8001 38.6328 38.7334 40.4328C39.6668 42.2995 41.3334 43.6995 43.4001 44.3661C44.2001 44.6328 45.0668 44.7661 45.8668 44.7661C48.4668 44.7661 51.0001 43.4995 52.4668 41.2995C52.9334 41.8995 53.4668 42.4328 54.0668 42.8995C54.2001 42.9661 54.3334 43.0328 54.4668 43.0328C58.0001 45.2995 62.7334 44.4995 65.3334 41.0995C67.4668 38.2328 67.3334 34.2995 65.2001 31.4995C65.8668 31.2995 66.6001 30.9661 67.2668 30.4328C69.0001 29.1661 70.1334 27.3661 70.4668 25.2328C70.8001 23.1661 70.3334 21.0328 69.0001 19.2995Z"/>
<path class="sp-blue" fill="#2F347F" d="M52.4668 33.9662C51.8001 33.9662 51.2001 33.7662 50.6668 33.3662C50.0001 32.8996 49.6001 32.1662 49.4668 31.3662C49.3334 30.5662 49.5334 29.7662 50.0668 29.1662C50.5334 28.4996 51.2668 28.0996 52.0668 27.9662C53.7334 27.7662 55.2668 28.8996 55.4668 30.4996C55.6668 32.1662 54.5334 33.6996 52.9334 33.8996C52.7334 33.9662 52.6001 33.9662 52.4668 33.9662ZM52.4668 29.8329C52.4001 29.8329 52.3334 29.8329 52.3334 29.8329C52.0668 29.8996 51.8001 30.0329 51.6001 30.2996C51.4001 30.4996 51.3334 30.8329 51.3334 31.0996C51.4001 31.3662 51.5334 31.6329 51.8001 31.8329C52.0668 32.0329 52.3334 32.0996 52.6001 32.0329C53.2001 31.9662 53.6668 31.3662 53.5334 30.7662C53.5334 30.2329 53.0001 29.8329 52.4668 29.8329Z"/>
<path class="sp-blue" fill="#2F347F" d="M54.7335 27.3661C53.8669 27.3661 52.9335 26.9661 52.3335 26.2328C51.8669 25.5661 51.6002 24.8328 51.7335 24.0328C51.8002 23.2328 52.2669 22.4994 52.8669 22.0328C53.4669 21.5661 54.2669 21.2994 55.0669 21.4328C55.8669 21.4994 56.6002 21.9661 57.0669 22.5661C58.0669 23.8994 57.8669 25.7661 56.5335 26.7661C56.0669 27.1661 55.4002 27.3661 54.7335 27.3661ZM54.7335 23.2328C54.4669 23.2328 54.2669 23.2994 54.0669 23.4994C53.8002 23.6994 53.6669 23.9661 53.6669 24.2328C53.6002 24.4994 53.7335 24.8328 53.8669 25.0328C54.2669 25.4994 54.9335 25.6328 55.4669 25.2328C55.9335 24.8328 56.0669 24.1661 55.6669 23.6328C55.4669 23.3661 55.2002 23.2328 54.9335 23.2328C54.8002 23.2994 54.8002 23.2328 54.7335 23.2328Z"/>
<path class="sp-blue" fill="#2F347F" d="M47.9333 28.7004C47.5333 28.7004 47.2 28.6337 46.8 28.5004C46.0666 28.1671 45.4666 27.6337 45.1333 26.9004C44.8 26.1671 44.8 25.3671 45.1333 24.5671C45.4666 23.7671 46 23.2337 46.7333 22.9004C47.4666 22.5671 48.2666 22.5671 49.0666 22.9004C50.6 23.5004 51.3333 25.3004 50.7333 26.8337C50.2666 27.9671 49.1333 28.7004 47.9333 28.7004ZM47.9333 24.5671C47.8 24.5671 47.6666 24.5671 47.4666 24.6337C47.2 24.7671 47 24.9671 46.8666 25.2337C46.7333 25.5004 46.7333 25.8337 46.8666 26.1004C47 26.3671 47.2 26.5671 47.4666 26.7004C48.0666 26.9004 48.6666 26.6337 48.9333 26.1004C49.1333 25.5004 48.8666 24.9004 48.3333 24.6337C48.2 24.5671 48.0666 24.5671 47.9333 24.5671Z"/>
<path class="sp-blue" fill="#2F347F" d="M50.5334 21.8996C50.2668 21.8996 50.0668 21.833 49.8668 21.633C49.6668 21.433 49.6001 21.233 49.6001 20.9663C49.6001 20.6996 49.7334 20.4996 49.8668 20.2996C49.9334 20.233 49.9334 20.233 50.0001 20.1663C50.0668 20.0996 50.1334 20.0996 50.1334 20.0996C50.2001 20.0996 50.2668 20.033 50.3334 20.033C50.6668 19.9663 51.0001 20.0996 51.2001 20.2996C51.4001 20.4996 51.4668 20.6996 51.4668 20.9663C51.4668 21.0996 51.4668 21.233 51.4001 21.2996C51.3334 21.433 51.2668 21.4996 51.2001 21.633C51.1334 21.6996 51.0001 21.7663 50.8668 21.833C50.8001 21.8996 50.6668 21.8996 50.5334 21.8996Z"/>
<path class="sp-blue" fill="#2F347F" d="M47.1999 31.5668C47.0666 31.5668 46.9333 31.5668 46.8666 31.5001C46.7333 31.4335 46.6666 31.3668 46.5333 31.3001C46.3333 31.1001 46.2666 30.9001 46.2666 30.6335C46.2666 30.3668 46.3999 30.1668 46.5333 29.9668C46.8666 29.6335 47.5333 29.6335 47.8666 29.9668C48.0666 30.1668 48.1333 30.3668 48.1333 30.6335C48.1333 30.9001 47.9999 31.1001 47.8666 31.3001C47.7999 31.3668 47.6666 31.4335 47.5333 31.5001C47.4666 31.5668 47.3333 31.5668 47.1999 31.5668Z"/>
<path class="sp-blue" fill="#2F347F" d="M57.5334 29.8996C57.2668 29.8996 57.0668 29.833 56.8668 29.633C56.6668 29.433 56.6001 29.233 56.6001 28.9663C56.6001 28.8996 56.6001 28.833 56.6001 28.7663C56.6001 28.6996 56.6001 28.633 56.6668 28.5663C56.6668 28.4996 56.7334 28.433 56.7334 28.433C56.7334 28.3663 56.8001 28.3663 56.8668 28.2996C57.0668 28.0996 57.4001 27.9663 57.7334 28.033C57.8001 28.033 57.8668 28.033 57.9334 28.0996C58.0001 28.0996 58.0668 28.1663 58.0668 28.1663C58.1334 28.1663 58.1334 28.233 58.2001 28.2996C58.2668 28.3663 58.2668 28.3663 58.3334 28.433C58.4001 28.4996 58.4001 28.5663 58.4001 28.5663C58.4001 28.633 58.4668 28.6996 58.4668 28.7663C58.4668 28.833 58.4668 28.8996 58.4668 28.9663C58.4668 29.0996 58.4668 29.233 58.4001 29.2996C58.3334 29.433 58.2668 29.4996 58.2001 29.633C58.0001 29.833 57.8001 29.8996 57.5334 29.8996Z"/>
<path class="sp-blue" fill="#2F347F" d="M74.7336 56.1659C73.2003 52.4992 69.1336 50.6992 65.4003 52.0992L53.9336 56.7659C53.7336 54.4326 51.7336 52.5659 49.267 52.5659H41.067L39.9336 51.7659C35.4003 48.6326 29.1336 46.6992 23.267 46.6992C22.7336 46.6992 22.3336 47.0992 22.3336 47.6325C22.3336 48.1659 22.7336 48.5659 23.267 48.5659C28.8003 48.5659 34.6003 50.2992 38.867 53.2325L39.467 53.6992C39.5336 54.0992 39.9336 54.4326 40.4003 54.4326H49.3336C50.867 54.4326 52.1336 55.6992 52.1336 57.2325C52.1336 58.7659 50.867 60.0326 49.3336 60.0326H33.667C33.1336 60.0326 32.7336 60.4325 32.7336 60.9659C32.7336 61.4992 33.1336 61.8992 33.667 61.8992H49.267C51.267 61.8992 52.9336 60.6992 53.6003 58.9659L66.067 53.8326C68.5336 52.8992 71.267 53.8992 72.6003 56.0326L49.067 67.3659C45.067 69.2992 40.5336 69.5659 36.3336 68.1659L23.5336 63.9659C23.067 63.8325 22.5336 64.0992 22.3336 64.5659C22.2003 65.0325 22.467 65.5659 22.9336 65.7659L35.7336 69.9659C37.667 70.6325 39.667 70.8992 41.667 70.8992C44.467 70.8992 47.267 70.2992 49.867 69.0326L74.267 57.2992C74.7336 57.1659 74.9336 56.6326 74.7336 56.1659Z"/>
<path class="sp-blue" fill="#2F347F" d="M16.7335 42.9668H8.26683C6.60016 42.9668 5.3335 44.2335 5.3335 45.9001V66.9668C5.3335 68.6335 6.60016 69.9001 8.26683 69.9001H16.7335C18.3335 69.9001 19.6668 68.5668 19.6668 66.9668V45.9001C19.6668 44.2335 18.4002 42.9668 16.7335 42.9668ZM17.8002 66.9668C17.8002 67.5001 17.2668 68.0335 16.7335 68.0335H8.26683C7.66683 68.0335 7.20016 67.5668 7.20016 66.9668V45.9001C7.20016 45.3001 7.66683 44.8335 8.26683 44.8335H16.7335C17.3335 44.8335 17.8002 45.3001 17.8002 45.9001V66.9668Z"/>
<path class="sp-blue" fill="#2F347F" d="M13.7337 60.2335C13.0004 59.9002 12.2004 59.9668 11.4004 60.2335C10.6004 60.5002 10.0671 61.1002 9.8004 61.9002C9.46706 62.6335 9.53373 63.4335 9.8004 64.2335C10.1337 64.9668 10.6671 65.5668 11.4671 65.8335C11.8671 65.9668 12.2004 66.0335 12.6004 66.0335C13.8004 66.0335 14.9337 65.3002 15.4004 64.1668C16.0004 62.5668 15.2671 60.8335 13.7337 60.2335ZM13.6671 63.4335C13.4671 64.0335 12.8004 64.3002 12.2004 64.0335C11.9337 63.9002 11.7337 63.7002 11.6004 63.4335C11.4671 63.1668 11.4671 62.8335 11.6004 62.5668C11.7337 62.3002 11.9337 62.1002 12.2004 61.9668C12.3337 61.9002 12.4671 61.9002 12.6671 61.9002C12.8004 61.9002 12.9337 61.9002 13.0671 61.9668C13.6004 62.1668 13.8671 62.8335 13.6671 63.4335Z"/>
</svg>
