<svg width="80" height="80" viewBox="0 0 80 80" fill="none" xmlns="http://www.w3.org/2000/svg">
<path class="sp-blue" fill="#2F347F" d="M47.5334 41.7338H11.6667C11.1334 41.7338 10.7334 41.3339 10.7334 40.8005C10.7334 40.2672 11.1334 39.8672 11.6667 39.8672H47.5334C48.0667 39.8672 48.4667 40.2672 48.4667 40.8005C48.4667 41.3339 48.0667 41.7338 47.5334 41.7338Z"/>
<path class="sp-blue" fill="#2F347F" d="M71.9333 53.8671C71.7333 53.6004 71.4667 53.4004 71.1333 53.4004H66.6667V42.8671C66.6667 42.3337 66.2667 41.9337 65.7333 41.9337H62.6V36.8004C62.6 36.2671 62.2 35.8671 61.6667 35.8671C61.1333 35.8671 60.6667 36.2004 60.6667 36.7337V41.8671H58.9333L57.1333 36.4004C57 35.9337 56.4 35.6671 55.9333 35.8004C55.4667 35.9337 55.2 36.5337 55.3333 37.0004L56.9333 41.8671H56.2C55.6667 41.8671 55.2667 42.2671 55.2667 42.8004V53.4004H33.4C33.4667 53.2671 33.4667 53.1337 33.4667 53.0004V48.4004H47.5333C48.0667 48.4004 48.4667 48.0004 48.4667 47.4671V30.3337C48.4667 29.8004 48.0667 29.4004 47.5333 29.4004C47 29.4004 46.6 29.8004 46.6 30.3337V46.5337H12.6V19.2671H39.6667C40.2 19.2671 40.6 18.8671 40.6 18.3337C40.6 17.8004 40.2 17.4004 39.6667 17.4004H11.6667C11.1333 17.4004 10.7333 17.8004 10.7333 18.3337V47.4671C10.7333 48.0004 11.1333 48.4004 11.6667 48.4004H25.4667V53.0004C25.4667 53.1337 25.5333 53.2671 25.5333 53.4004H8.86666C8.53332 53.4004 8.19999 53.6004 8.06666 53.8671C7.93332 54.1337 7.86666 54.5337 8.06666 54.8004L11.9333 61.8671L9.13332 70.2671C8.79999 71.4004 8.93332 72.5337 9.66666 73.467C10.3333 74.4004 11.3333 74.8671 12.5333 74.8671C14 74.8671 15.4 73.867 15.8667 72.467L19.1333 62.6671H61L63.0667 72.0004C63.4 73.667 64.9333 74.8671 66.5333 74.8671C67.6 74.8671 68.6 74.4004 69.2667 73.5337C70 72.6671 70.2667 71.5337 70 70.467L68.1333 61.8671L72 54.7337C72.1333 54.5337 72.1333 54.1337 71.9333 53.8671ZM57.2 43.8004H64.8V53.4004H57.2V43.8004ZM27.4 53.0004V48.4004H31.6V53.0004C31.6 53.1337 31.6667 53.2671 31.6667 53.4004H27.2667C27.3333 53.2671 27.4 53.1337 27.4 53.0004ZM14 71.9337C13.8 72.6004 13.1333 73.067 12.4667 73.067C11.9333 73.067 11.4667 72.8004 11.1333 72.4004C10.8 72.0004 10.7333 71.4004 10.9333 70.9337L13.6 62.8004H17L14 71.9337ZM67.7333 72.467C67.4 72.867 66.9333 73.067 66.4667 73.067C65.6667 73.067 65 72.467 64.8 71.7337L62.8 62.8004H66.2667L68.0667 71.0004C68.2 71.467 68.0667 72.0004 67.7333 72.467ZM66.5333 60.8671H13.5333L10.4667 55.3337H69.5333L66.5333 60.8671Z"/>
<path class="sp-blue" fill="#2F347F" d="M15.0666 43.1328C14.5333 43.1328 14.1333 43.5328 14.1333 44.0661C14.1333 44.5995 14.5333 44.9995 15.0666 44.9995H17.0666C17.6 44.9995 18 44.5995 18 44.0661C18 43.5328 17.6 43.1328 17.0666 43.1328H15.0666Z"/>
<path class="sp-blue" fill="#2F347F" d="M43.9331 45.1342C44.4664 45.1342 44.8664 44.7342 44.8664 44.2009C44.8664 43.6676 44.4664 43.2676 43.9331 43.2676H43.8664C43.3331 43.2676 42.9331 43.6676 42.9331 44.2009C42.9331 44.7342 43.3998 45.1342 43.9331 45.1342Z"/>
<path class="sp-blue" fill="#2F347F" d="M40.4665 43.2676C39.9332 43.2676 39.5332 43.6676 39.5332 44.2009C39.5332 44.7342 39.9999 45.1342 40.5332 45.1342C41.0665 45.1342 41.4665 44.7342 41.4665 44.2009C41.4665 43.6676 41.0665 43.2676 40.4665 43.2676Z"/>
<path class="sp-red" fill="#DF232F" d="M50.0666 11.0012C49.6666 10.6012 49.0666 10.6012 48.7332 11.0012C47.2666 12.4678 46.3999 14.4678 46.3999 16.6012C46.3999 18.7345 47.1999 20.7345 48.7332 22.2012C48.9332 22.4012 49.1332 22.4678 49.3999 22.4678C49.6666 22.4678 49.8666 22.4012 50.0666 22.2012C50.4666 21.8012 50.4666 21.2012 50.0666 20.8678C48.9332 19.7345 48.2666 18.2012 48.2666 16.6012C48.2666 15.0012 48.8666 13.4678 50.0666 12.3345C50.3999 12.0012 50.3999 11.4012 50.0666 11.0012Z"/>
<path class="sp-red" fill="#DF232F" d="M74.1334 32.0669L67.4667 25.4003C66.6 24.5336 65.1334 24.4669 64.2 25.2003L63 24.0003C66.8 19.5336 66.6 12.8003 62.3334 8.53359C57.8667 4.06693 50.6667 4.06693 46.2 8.53359C44.0667 10.6669 42.8667 13.5336 42.8667 16.6003C42.8667 19.6669 44.0667 22.5336 46.2 24.6669C48.3334 26.8003 51.2 28.0003 54.2667 28.0003C57 28.0003 59.6 27.0669 61.6667 25.2669L62.8667 26.4669C62.1334 27.4669 62.2 28.8669 63.0667 29.7336L69.7334 36.4003C70.2 36.8669 70.8667 37.1336 71.4667 37.1336C72.1334 37.1336 72.7334 36.8669 73.2667 36.4003L74.1334 35.5336C75.1334 34.6669 75.1334 33.0669 74.1334 32.0669ZM54.3334 26.1336C51.8 26.1336 49.4 25.1336 47.6 23.3336C45.8 21.5336 44.8 19.1336 44.8 16.6003C44.8 14.0669 45.8 11.6669 47.6 9.86693C49.4667 8.00026 51.8667 7.06693 54.3334 7.06693C56.8 7.06693 59.2 8.00026 61.0667 9.86693C64.8 13.6003 64.8 19.6003 61.0667 23.3336C59.2667 25.1336 56.8667 26.1336 54.3334 26.1336ZM72.8 34.2669L71.9334 35.1336C71.6667 35.4003 71.3334 35.4003 71.0667 35.1336L64.4 28.4669C64.1334 28.2003 64.1334 27.8669 64.4 27.6003L65.2667 26.7336C65.4 26.6003 65.5334 26.5336 65.6667 26.5336C65.8 26.5336 66 26.6003 66.0667 26.7336L72.7334 33.4003C73.0667 33.6669 73.0667 34.0669 72.8 34.2669Z"/>
</svg>
