<svg width="80" height="81" viewBox="0 0 80 81" fill="none" xmlns="http://www.w3.org/2000/svg">
<path class="sp-blue" fill="#2F347F" d="M73.5999 34.0332H67.7999H67.7332H67.6666H12.2666H12.1999H12.1332H6.33324C5.7999 34.0332 5.3999 34.4332 5.3999 34.9665V74.2999C5.3999 74.8332 5.7999 75.2332 6.33324 75.2332H12.1332C12.6666 75.2332 13.0666 74.8332 13.0666 74.2999V63.8999H66.8666V74.2999C66.8666 74.8332 67.2666 75.2332 67.7999 75.2332H73.5999C74.1332 75.2332 74.5332 74.8332 74.5332 74.2999V34.9665C74.5332 34.4332 74.1332 34.0332 73.5999 34.0332ZM13.0666 40.0332H17.9999V58.0332H13.0666V40.0332ZM11.1999 73.3665H7.26657V35.8999H11.1999V73.3665ZM66.8666 62.0332H13.0666V59.8999H66.8666V62.0332ZM19.8666 58.0332V40.0332H24.9999V58.0332H19.8666ZM26.8666 58.0332V40.0332H31.9999V58.0332H26.8666ZM33.8666 58.0332V40.0332H39.0666V58.0332H33.8666ZM40.9332 58.0332V40.0332H46.0666V58.0332H40.9332ZM47.9332 58.0332V40.0332H53.0666V58.0332H47.9332ZM54.9332 58.0332V40.0332H60.0666V58.0332H54.9332ZM66.8666 58.0332H61.9332V40.0332H66.8666V58.0332ZM13.0666 38.1665V35.8999H66.8666V38.1665H13.0666ZM72.6666 73.3665H68.7332V35.8999H72.6666V73.3665Z"/>
<path class="sp-red" fill="#DF232F" d="M69.5331 7.83346C70.0664 7.83346 70.4664 7.43346 70.4664 6.90013C70.4664 6.3668 70.0664 5.9668 69.5331 5.9668H40.1997C39.6664 5.9668 39.2664 6.3668 39.2664 6.90013C39.2664 7.43346 39.6664 7.83346 40.1997 7.83346H43.2664V13.4335L42.0664 15.9001L39.0664 16.3668C38.7331 16.4335 38.3997 16.7001 38.3331 17.0335C38.1997 17.3668 38.3331 17.7668 38.5997 17.9668L40.7997 20.1001L40.2664 23.0335C40.1997 23.3668 40.3331 23.7668 40.6664 23.9668C40.7997 24.1001 40.9997 24.1668 41.1997 24.1668C41.3331 24.1668 41.4664 24.1001 41.6664 24.0335L44.3331 22.6335L46.9997 24.0335C47.3331 24.1668 47.7331 24.1668 47.9997 23.9668C48.2664 23.7668 48.3997 23.3668 48.3997 23.0335L47.8664 20.1001L49.9997 17.9668C50.2664 17.7001 50.3331 17.3668 50.1997 17.0335C50.0664 16.7001 49.7997 16.4335 49.4664 16.3668L46.4664 15.9001L45.2664 13.4335V7.83346H54.0664V18.2335C54.0664 18.3668 54.0664 18.5001 54.1331 18.6335C52.1331 19.7001 50.7997 21.7668 50.7997 24.1668C50.7997 27.6335 53.5997 30.4335 57.0664 30.4335C57.4664 30.4335 57.8664 30.3668 58.2664 30.3001C58.6664 30.2335 58.9331 29.9668 58.9997 29.5668C59.0664 29.1668 58.9331 28.8335 58.5997 28.5668C57.1997 27.5668 56.3997 25.9668 56.3997 24.1668C56.3997 22.4335 57.1997 20.7668 58.5997 19.7001C58.8664 19.5001 59.0664 19.1001 58.9331 18.7668C58.8664 18.4335 58.5331 18.1001 58.1997 18.0335C57.8664 17.9668 57.4664 17.9001 56.9997 17.9001C56.5997 17.9001 56.2664 17.9668 55.8664 18.0335V7.83346H64.1997V11.3668C62.1331 11.8335 60.5331 13.6335 60.5331 15.9001C60.5331 18.4335 62.5997 20.5001 65.1331 20.5001C67.6664 20.5001 69.7331 18.4335 69.7331 15.9001C69.7331 13.7001 68.1331 11.8335 66.0664 11.3668V7.83346H69.5331ZM47.1997 17.9668L46.0664 19.1001C45.8664 19.3001 45.7331 19.6335 45.7997 19.9001L46.0664 21.4335L44.5997 20.7001C44.4664 20.6335 44.3331 20.5668 44.1997 20.5668C44.0664 20.5668 43.8664 20.6335 43.7331 20.7001L42.3997 21.4335L42.6664 19.9001C42.7331 19.5668 42.5997 19.3001 42.3997 19.0335L41.1997 17.9001L42.7997 17.6335C43.1331 17.5668 43.3997 17.3668 43.5331 17.1001L44.1997 15.7001L44.8664 17.1001C44.9997 17.3668 45.2664 17.5668 45.5997 17.6335L47.1997 17.9668ZM55.6664 28.3668C53.8664 27.8335 52.5331 26.1668 52.5331 24.1668C52.5331 22.1668 53.8664 20.5001 55.6664 19.9668C54.7997 21.1668 54.3997 22.6335 54.3997 24.1668C54.3997 25.7001 54.8664 27.1668 55.6664 28.3668ZM67.7997 15.9001C67.7997 17.4335 66.5997 18.6335 65.0664 18.6335C63.5331 18.6335 62.3331 17.4335 62.3331 15.9001C62.3331 14.3668 63.5331 13.1668 65.0664 13.1668C66.5997 13.1668 67.7997 14.3668 67.7997 15.9001Z"/>
</svg>
