<svg width="80" height="81" viewBox="0 0 80 81" fill="none" xmlns="http://www.w3.org/2000/svg">
<path class="sp-blue" fill="#2F347F" d="M38.5333 50.2333H34.1999V45.5667C34.1999 43.3 32.3999 41.5 30.1333 41.5H17.9999C15.7333 41.5 13.9333 43.3 13.9333 45.5667V50.2333H8.99993C6.93327 50.2333 5.2666 51.7667 5.2666 53.7667V71.6333C5.2666 73.6333 6.8666 75.1667 8.99993 75.1667H38.5333C40.5999 75.1667 42.2666 73.6333 42.2666 71.6333V53.7667C42.2666 51.7667 40.6666 50.2333 38.5333 50.2333ZM35.4666 69.4333V73.3H12.1333V69.1667C12.1333 68.6333 11.7333 68.2333 11.1999 68.2333H7.19994V57.0333H11.1999C11.7333 57.0333 12.1333 56.6333 12.1333 56.1V52.1H35.3999V56.1C35.3999 56.6333 35.7999 57.0333 36.3333 57.0333H40.3333V68.4333H36.3333C35.8666 68.4333 35.4666 68.9 35.4666 69.4333ZM28.5999 50.2333H19.5999V47.1667H28.6666L28.5999 50.2333ZM40.3999 53.7667V55.1667H37.3333V52.1H38.5999C39.5999 52.1 40.3999 52.8333 40.3999 53.7667ZM15.8666 45.5667C15.8666 44.3667 16.7999 43.4333 17.9999 43.4333H30.1333C31.3333 43.4333 32.2666 44.3667 32.2666 45.5667V50.2333H30.4666V46.2333C30.4666 45.7 30.0666 45.3 29.5333 45.3H18.6666C18.1333 45.3 17.7333 45.7 17.7333 46.2333V50.2333H15.9333V45.5667H15.8666ZM9.0666 52.1H10.3333V55.1667H7.2666V53.7667C7.19993 52.8333 7.99994 52.1 9.0666 52.1ZM7.19994 71.6333V70.1H10.2666V73.3H8.99993C7.99993 73.3 7.19994 72.5667 7.19994 71.6333ZM38.5333 73.3H37.3333V70.3667H40.3999V71.6333C40.3999 72.5667 39.5999 73.3 38.5333 73.3Z"/>
<path class="sp-blue" fill="#2F347F" d="M58.1998 73.3672H50.8664C50.9331 73.2339 50.9331 73.1005 50.9331 72.9672V28.0339C53.5331 27.1005 55.7331 26.7672 57.9998 27.1005C58.1331 27.1672 58.2664 27.1672 58.3998 27.1672C59.4664 27.3672 60.1998 27.5672 61.2664 28.1005C61.3998 28.1672 61.5331 28.1672 61.6664 28.1672C61.9998 28.1672 62.3998 27.9672 62.5331 27.6339C62.7331 27.1672 62.5331 26.5672 62.0664 26.3672C60.9998 25.9005 60.3331 25.6339 59.2664 25.4339V9.36719C59.2664 8.90052 58.9998 8.56719 58.5331 8.43385C56.1998 7.83385 53.9331 8.03385 50.9331 9.03385V7.30052C50.9331 6.76719 50.5331 6.36719 49.9998 6.36719C49.4664 6.36719 49.0664 6.76719 49.0664 7.30052V10.3672V27.3672V72.9672C49.0664 73.1005 49.0664 73.2339 49.1331 73.3672H46.8664C46.3331 73.3672 45.9331 73.7672 45.9331 74.3005C45.9331 74.8339 46.3331 75.2339 46.8664 75.2339H58.1998C58.7331 75.2339 59.1331 74.8339 59.1331 74.3005C59.1331 73.7672 58.7331 73.3672 58.1998 73.3672ZM57.3998 10.1672V25.1672C55.3331 25.0339 53.2664 25.3005 50.9331 26.0339V11.0339C53.5998 10.1005 55.5331 9.83385 57.3998 10.1672Z"/>
<path class="sp-blue" fill="#2F347F" d="M15.133 26.5665H34.2664C36.7997 26.5665 38.7997 24.4999 38.7997 22.0332C38.7997 20.0999 37.533 18.2999 35.6664 17.6999C35.133 17.4999 34.6664 17.4332 34.0664 17.4332C32.9997 15.3665 30.8664 14.0332 28.4664 14.0332C25.333 14.0332 22.6664 16.3665 22.2664 19.4332C20.933 19.6332 19.8664 20.6332 19.4664 21.9665C19.333 22.4999 19.5997 22.9665 20.133 23.1665C20.6664 23.2999 21.133 23.0332 21.333 22.4999C21.533 21.7665 22.1997 21.2332 22.933 21.2332H23.1997C23.733 21.2332 24.133 20.8332 24.133 20.2999C24.133 17.8999 26.133 15.8999 28.533 15.8999C30.333 15.8999 31.9997 17.0999 32.6664 18.7665C32.7997 19.2332 33.333 19.4999 33.7997 19.3665C33.933 19.2999 34.133 19.2999 34.3997 19.2999C34.6664 19.2999 34.8664 19.3665 35.133 19.4332H35.1997C36.333 19.7665 37.0664 20.8332 37.0664 21.9665C37.0664 23.4332 35.933 24.6332 34.3997 24.6332H15.133C14.5997 24.6332 14.1997 25.0332 14.1997 25.5665C14.1997 26.0999 14.5997 26.5665 15.133 26.5665Z"/>
<path class="sp-blue" fill="#2F347F" d="M71.5331 73.6348C71.1998 73.3014 70.5331 73.3014 70.1998 73.6348C69.9998 73.8348 69.9331 74.0348 69.9331 74.3014C69.9331 74.4348 69.9331 74.5681 69.9998 74.6348C70.0664 74.7681 70.1331 74.8348 70.1998 74.9681C70.3998 75.1681 70.5998 75.2348 70.8664 75.2348C71.1331 75.2348 71.3331 75.1681 71.5331 74.9681C71.5998 74.9014 71.6664 74.7681 71.7331 74.6348C71.7998 74.5014 71.7998 74.3681 71.7998 74.3014C71.7998 74.0348 71.7331 73.8348 71.5331 73.6348Z"/>
<path class="sp-blue" fill="#2F347F" d="M66.8666 73.3672H62.1999C61.6666 73.3672 61.2666 73.7672 61.2666 74.3005C61.2666 74.8339 61.6666 75.2339 62.1999 75.2339H66.8666C67.3999 75.2339 67.7999 74.8339 67.7999 74.3005C67.7999 73.7672 67.3999 73.3672 66.8666 73.3672Z"/>
<path class="sp-blue" fill="#2F347F" d="M10.5331 26.5009C10.6664 26.5676 10.7998 26.5676 10.8664 26.5676C11.1331 26.5676 11.3331 26.5009 11.5331 26.3009C11.5998 26.2343 11.6664 26.1009 11.7331 25.9676C11.7998 25.8343 11.7998 25.7009 11.7998 25.6343C11.7998 25.3676 11.6664 25.1676 11.5331 24.9676C11.3331 24.7676 10.9998 24.6343 10.6664 24.7009C10.5998 24.7009 10.5331 24.7009 10.4664 24.7676C10.3998 24.7676 10.3331 24.8343 10.3331 24.8343C10.2664 24.8343 10.2664 24.9009 10.1998 24.9676C9.99977 25.1676 9.93311 25.3676 9.93311 25.6343C9.93311 25.9009 9.99977 26.1009 10.1998 26.3009C10.2664 26.3676 10.3998 26.4343 10.5331 26.5009Z"/>
<path class="sp-blue" fill="#2F347F" d="M6.19977 26.3001C6.39977 26.5001 6.59977 26.5668 6.86644 26.5668C6.99977 26.5668 7.13311 26.5668 7.19977 26.5001C7.33311 26.4335 7.39977 26.3668 7.53311 26.3001C7.59977 26.2335 7.66644 26.1001 7.73311 25.9668C7.79977 25.8335 7.79977 25.7001 7.79977 25.6335C7.79977 25.3668 7.73311 25.1668 7.53311 24.9668C7.19977 24.6335 6.53311 24.6335 6.19977 24.9668C5.99977 25.1668 5.93311 25.3668 5.93311 25.6335C5.93311 25.7668 5.93311 25.9001 5.99977 25.9668C6.06644 26.1001 6.13311 26.2335 6.19977 26.3001Z"/>
<path class="sp-red" fill="#DF232F" d="M64.5998 12.8333V28.9666C64.5998 29.5 64.9998 29.9 65.5332 29.9C65.6665 29.9 65.8665 29.9 65.9998 29.9C68.1332 29.9 70.4665 29.5 73.8665 28.5C74.2665 28.3666 74.5332 28.0333 74.5332 27.5666V10.6333C74.5332 10.3666 74.3998 10.0333 74.1998 9.89997C73.9332 9.69997 73.6665 9.6333 73.3998 9.76663C69.0665 10.9666 66.5332 11.3 64.5998 10.9666C64.5332 10.9666 64.5332 10.9666 64.4665 10.9666C64.1998 10.9 63.8665 10.8333 63.4665 10.7666C63.1332 10.7 62.7998 10.6333 62.5332 10.5666C61.9998 10.5 61.5332 10.8333 61.4665 11.3C61.3998 11.8333 61.7332 12.3 62.1998 12.3666C62.5332 12.4333 62.7998 12.5 63.0665 12.5666C63.4665 12.6333 63.8665 12.7666 64.1998 12.7666L64.5998 12.8333ZM72.6665 26.9C70.0665 27.6333 68.1332 27.9666 66.4665 28.0333V12.9C68.0665 12.8333 70.0665 12.5 72.6665 11.8333V26.9Z"/>
<path class="sp-red" fill="#DF232F" d="M22.9332 58.7004C22.7999 58.1671 22.3332 57.9004 21.7999 57.9671L14.1999 59.5671C13.9332 59.6338 13.7332 59.7671 13.5999 59.9671C13.4666 60.1671 13.3999 60.4338 13.4666 60.7004L14.3332 64.7671C14.3999 65.0338 14.5332 65.2338 14.7332 65.3671C14.8666 65.4338 15.0666 65.5004 15.2666 65.5004C15.3332 65.5004 15.3999 65.5004 15.4666 65.5004L23.1332 63.8338C23.6666 63.7004 23.9999 63.2338 23.8666 62.7004L22.9332 58.7004ZM15.9999 63.4338L15.5332 61.2338L21.3332 59.9671L21.7999 62.1671L15.9999 63.4338Z"/>
<path class="sp-red" fill="#DF232F" d="M29.6664 60.5664C27.6664 60.5664 26.0664 62.1664 26.0664 64.1664C26.0664 66.1664 27.6664 67.7664 29.6664 67.7664C31.6664 67.7664 33.2664 66.1664 33.2664 64.1664C33.2664 62.1664 31.6664 60.5664 29.6664 60.5664ZM29.6664 65.8997C28.7331 65.8997 27.9331 65.0997 27.9331 64.1664C27.9331 63.2331 28.7331 62.4331 29.6664 62.4331C30.5997 62.4331 31.3997 63.2331 31.3997 64.1664C31.3997 65.0997 30.5997 65.8997 29.6664 65.8997Z"/>
</svg>
