<svg width="80" height="81" viewBox="0 0 80 81" fill="none" xmlns="http://www.w3.org/2000/svg">
<path class="sp-blue" fill="#2F347F" d="M17.1333 30.8999V31.0332C17.2 31.4332 17.2 31.8332 17.2667 32.2332V32.3665C17.2667 32.4999 17.2667 32.5665 17.3333 32.6999C17.4 33.2999 17.5333 33.7665 17.6667 34.2332C17.8 34.6999 17.9333 35.1665 18.0667 35.7665L18.2 36.2332C18.3333 36.5665 18.4667 36.9665 18.6 37.2999L18.6667 37.4332C18.7333 37.5665 18.7333 37.6332 18.8 37.7665C19.2 38.6999 19.6667 39.6332 20.1333 40.4999C20.2 40.6332 20.2667 40.6999 20.3333 40.8332L20.4 40.8999C20.6 41.2332 20.8 41.5665 21 41.8332L21.0667 41.8999C21.1333 41.9665 21.2 42.0999 21.2667 42.1665C21.8667 42.9665 22.4667 43.7665 23.2 44.5665C23.2667 44.6332 23.3333 44.6999 23.4 44.7665L23.4667 44.8332C23.7333 45.0999 24 45.3665 24.2667 45.6332L24.6 45.8999C25 46.2999 25.4 46.6332 25.7333 46.8999C27.4 48.2332 29.2667 49.2999 31.2667 50.1665L39.2 65.5665C39.2 65.5665 39.2 65.6332 39.2667 65.6332C39.3333 65.6999 39.4 65.8332 39.4667 65.8999C39.5333 65.9665 39.6667 66.0332 39.7333 66.0332C39.8 66.0332 39.9333 66.0999 40 66.0999C40.0667 66.0999 40.2 66.0999 40.2667 66.0332C40.4 65.9665 40.4667 65.9665 40.6 65.8332C40.6667 65.7665 40.7333 65.6999 40.8 65.5665C40.8 65.5665 40.8 65.4999 40.8667 65.4999L48.8 50.0999C50.8 49.2999 52.6 48.1665 54.3333 46.8999C54.3333 46.8999 54.3333 46.8999 54.4 46.8999C54.7333 46.6332 55.1333 46.2999 55.5333 45.8999C55.6 45.8332 55.6667 45.7665 55.8 45.6999L55.8667 45.6332C56.1333 45.3665 56.4 45.0999 56.6667 44.8332L56.9333 44.4999C57.6 43.7665 58.2667 42.9665 58.8667 42.0999C58.9333 42.0332 59 41.8999 59.0667 41.8332L59.1333 41.7665C59.3333 41.4332 59.5333 41.0999 59.7333 40.8332L59.9333 40.4332C60.2 39.8999 60.4667 39.4999 60.6667 39.0999C60.8667 38.6999 61.0667 38.2332 61.2667 37.6999C61.3333 37.5665 61.3333 37.4999 61.4 37.3665L61.4667 37.2332C61.6 36.8999 61.7333 36.4999 61.8667 36.1665L61.9333 36.0332C62 35.9665 62 35.8332 62 35.7665C62.2 35.2332 62.3333 34.6999 62.4 34.2999C62.5333 33.8332 62.6 33.2999 62.7333 32.7665C62.7333 32.6332 62.8 32.4999 62.8 32.2999C62.8667 31.8999 62.9333 31.4999 62.9333 31.0999V30.9665C62.9333 30.8332 62.9333 30.6999 62.9333 30.6332C63 30.0332 63 29.4999 63 29.0332C63 16.3665 52.6667 6.0332 40 6.0332C27.3333 6.0332 17 16.2332 17 28.8999C17 29.3665 17 29.8999 17.0667 30.4999C17.0667 30.6332 17.1333 30.7665 17.1333 30.8999ZM40.0667 7.76654C51.7333 7.76654 61.2 17.2332 61.2 28.8999C61.2 29.3665 61.2 29.8332 61.1333 30.3665C61.1333 30.4999 61.1333 30.5665 61.1333 30.6999V30.8332C61.1333 31.1665 61.0667 31.5665 61 31.8999V31.9665C61 32.0999 60.9333 32.2332 60.9333 32.2999C60.8667 32.8332 60.7333 33.2999 60.6667 33.6999C60.6 34.0999 60.4667 34.5665 60.2667 35.0999C60.2667 35.1665 60.2 35.2999 60.2 35.3665L60.1333 35.4999C60 35.8332 59.9333 36.1665 59.8 36.4999L59.7333 36.6332C59.6667 36.6999 59.6667 36.8332 59.6 36.8999C59.4 37.4332 59.2 37.8332 59 38.1665C58.8 38.5665 58.6 38.9665 58.3333 39.4332L58.1333 39.8332C57.9333 40.0999 57.7333 40.4332 57.6 40.6999L57.3333 41.0332C56.8 41.7665 56.2 42.4999 55.6 43.2332L55.3333 43.4999C55.0667 43.7665 54.8667 44.0332 54.6 44.2332L54.2667 44.4999C53.8667 44.8332 53.5333 45.1665 53.2 45.3665C53.2 45.3665 53.2 45.3665 53.1333 45.3665C51.4667 46.6999 49.6667 47.6999 47.7333 48.4999C47.5333 48.5665 47.3333 48.7665 47.2667 48.9665L40.0667 63.0999L32.8 49.0332C32.6667 48.8332 32.5333 48.6999 32.3333 48.5665C30.4 47.8332 28.6 46.7665 26.9333 45.4332C26.6 45.1665 26.2667 44.8999 25.8667 44.5665L25.6 44.2999C25.3333 44.0332 25.0667 43.8332 24.8667 43.5665L24.6 43.2999C24 42.6332 23.4 41.8999 22.8667 41.0999C22.8 41.0332 22.7333 40.9665 22.7333 40.8332L22.6667 40.7665C22.4667 40.4999 22.2667 40.1665 22.0667 39.8999L21.8667 39.5665C21.4 38.7665 21 37.8999 20.6 37.0332C20.5333 36.9665 20.5333 36.8332 20.4667 36.7665L20.4 36.6332C20.2667 36.2999 20.1333 35.9665 20.0667 35.6332L19.8667 35.1665C19.7333 34.6332 19.6 34.2332 19.4667 33.7665C19.4 33.3665 19.2667 32.8999 19.2 32.3665L19.1333 31.9665C19.0667 31.6332 19.0667 31.2332 19 30.8999V30.7665C19 30.6332 19 30.5665 19 30.4332C18.9333 29.8332 18.9333 29.3665 18.9333 28.9665C18.9333 17.2332 28.4 7.76654 40.0667 7.76654Z"/>
<path class="sp-blue" fill="#2F347F" d="M73.6666 73.2327H68.2666V69.8327C68.2666 69.566 68.1999 69.366 67.9999 69.166L64.9999 66.166C64.5999 65.766 63.9999 65.766 63.6666 66.166L60.9999 68.8327C60.7999 69.0327 60.7332 69.2327 60.7332 69.4994V73.2327H57.2666V63.4994C57.2666 62.966 56.8666 62.566 56.3332 62.566H48.9999C48.4666 62.566 48.0666 62.966 48.0666 63.4994V73.2327H32.5999V66.8327C32.5999 66.2994 32.1999 65.8994 31.6666 65.8994H24.9999C24.4666 65.8994 24.0666 66.2994 24.0666 66.8327V73.2327H21.9332V63.366C21.9332 63.0327 21.7332 62.6993 21.4666 62.566L14.7999 58.566C14.5332 58.366 14.1332 58.366 13.8666 58.566C13.5999 58.766 13.3999 59.0327 13.3999 59.366V73.2327H6.33324C5.7999 73.2327 5.3999 73.6327 5.3999 74.166C5.3999 74.6994 5.7999 75.0994 6.33324 75.0994H14.3332C14.8666 75.0994 15.2666 74.6994 15.2666 74.166V61.0327L20.0666 63.8993V74.166C20.0666 74.6994 20.4666 75.0994 20.9999 75.0994H24.9999C25.5332 75.0994 25.9332 74.6994 25.9332 74.166V67.766H30.7332V74.166C30.7332 74.6994 31.1332 75.0994 31.6666 75.0994H48.9999C49.5332 75.0994 49.9332 74.6994 49.9332 74.166V64.4327H55.3999V74.166C55.3999 74.6994 55.7999 75.0994 56.3332 75.0994H61.6666C62.1999 75.0994 62.5999 74.6994 62.5999 74.166V69.8994L64.3332 68.166L66.3999 70.2327V74.166C66.3999 74.6994 66.7999 75.0994 67.3332 75.0994H73.6666C74.1999 75.0994 74.5999 74.6994 74.5999 74.166C74.5999 73.6327 74.1999 73.2327 73.6666 73.2327Z"/>
<path class="sp-red" fill="#DF232F" d="M43.4665 16.7661C42.7998 15.4328 41.4665 14.6328 39.9999 14.6328C38.5332 14.6328 37.1999 15.4328 36.5332 16.7661L27.6665 34.0995C27.0665 35.2995 27.0665 36.7661 27.7999 37.8995C28.5332 39.0995 29.7332 39.7661 31.1332 39.7661H48.9332C50.3332 39.7661 51.5332 39.0995 52.2665 37.8995C52.9998 36.6995 53.0665 35.2995 52.3998 34.0995L43.4665 16.7661ZM50.5998 36.9661C50.1999 37.5661 49.5999 37.8995 48.8665 37.8995H31.1332C30.3999 37.8995 29.7999 37.5661 29.3999 36.9661C28.9999 36.3661 28.9999 35.6328 29.3332 35.0328L38.1999 17.6995C38.5332 17.0328 39.1999 16.6328 39.9999 16.6328C40.7999 16.6328 41.4665 17.0328 41.7999 17.6995L50.6665 35.0328C50.9998 35.6328 50.9332 36.3661 50.5998 36.9661Z"/>
<path class="sp-red" fill="#DF232F" d="M40.0667 30.4324C40.6 30.4324 41 30.0324 41 29.4991V22.1658C41 21.6324 40.6 21.2324 40.0667 21.2324C39.5333 21.2324 39.1333 21.6324 39.1333 22.1658V29.4991C39.0667 29.9658 39.5333 30.4324 40.0667 30.4324Z"/>
<path class="sp-red" fill="#DF232F" d="M40.0666 32.5664C39.1332 32.5664 38.3999 33.2997 38.3999 34.2331C38.3999 35.1664 39.1332 35.8997 40.0666 35.8997C40.9999 35.8997 41.7332 35.1664 41.7332 34.2331C41.7332 33.2997 40.9332 32.5664 40.0666 32.5664Z"/>
<path class="sp-red" fill="#DF232F" d="M15.1333 16.4327C14.6666 16.2327 14.0666 16.4327 13.8666 16.8994C12.0666 20.766 11.1333 24.8327 11.1333 29.0994C11.1333 33.366 12.0666 37.4327 13.8666 41.2994C14 41.6327 14.4 41.8327 14.7333 41.8327C14.8666 41.8327 15 41.8327 15.1333 41.766C15.6 41.566 15.8 40.966 15.6 40.4994C13.9333 36.8994 13.0666 33.0994 13.0666 29.0994C13.0666 25.0994 13.9333 21.2994 15.6 17.6994C15.8 17.166 15.6 16.6327 15.1333 16.4327Z"/>
<path class="sp-red" fill="#DF232F" d="M64.9331 16.4321C64.4664 16.6321 64.2664 17.2321 64.4664 17.6987C66.1331 21.2987 66.9997 25.0987 66.9997 29.0987C66.9997 33.0321 66.1331 36.8987 64.4664 40.4987C64.2664 40.9654 64.4664 41.5654 64.9331 41.7654C65.0664 41.8321 65.1997 41.8321 65.3331 41.8321C65.6664 41.8321 65.9997 41.6321 66.1997 41.2987C67.9997 37.4321 68.9331 33.3654 68.9331 29.0987C68.9331 24.8321 67.9997 20.7654 66.1997 16.8987C65.9997 16.3654 65.3997 16.1654 64.9331 16.4321Z"/>
<path class="sp-red" fill="#DF232F" d="M71.3999 14.4326C71.1999 13.9659 70.5999 13.7659 70.1332 13.9659C69.6666 14.1659 69.4666 14.7659 69.6666 15.2326C71.6666 19.5659 72.7332 24.2326 72.7332 29.0326C72.7332 33.8326 71.7332 38.4992 69.6666 42.8326C69.4666 43.2992 69.6666 43.8992 70.1332 44.0992C70.2666 44.1659 70.3999 44.1659 70.5332 44.1659C70.8666 44.1659 71.1999 43.9659 71.3999 43.6326C73.5332 39.0326 74.6666 34.0992 74.6666 29.0326C74.6666 23.9659 73.5332 19.0326 71.3999 14.4326Z"/>
<path class="sp-red" fill="#DF232F" d="M9.93324 13.9659C9.46657 13.7659 8.86657 13.9659 8.66657 14.4326C6.53324 19.0326 5.3999 23.9659 5.3999 29.0326C5.3999 34.0992 6.46657 39.0326 8.66657 43.6326C8.7999 43.9659 9.1999 44.1659 9.53324 44.1659C9.66657 44.1659 9.7999 44.1659 9.93324 44.0992C10.3999 43.8992 10.5999 43.2992 10.3999 42.8326C8.33324 38.4992 7.33324 33.8326 7.33324 29.0326C7.33324 24.2326 8.33324 19.5659 10.3999 15.2326C10.5999 14.7659 10.3999 14.2326 9.93324 13.9659Z"/>
</svg>
