<svg width="80" height="81" viewBox="0 0 80 81" fill="none" xmlns="http://www.w3.org/2000/svg">
<path class="sp-blue" fill="#2F347F" d="M17.6002 50.166H12.2668C11.7335 50.166 11.3335 50.566 11.3335 51.0994V61.0994C11.3335 61.6327 11.7335 62.0327 12.2668 62.0327H17.6002C18.1335 62.0327 18.5335 61.6327 18.5335 61.0994V51.0994C18.5335 50.566 18.0668 50.166 17.6002 50.166ZM16.6002 60.166H13.1335V52.0327H16.6002V60.166Z"/>
<path class="sp-blue" fill="#2F347F" d="M28.2667 50.166H22.9333C22.4 50.166 22 50.566 22 51.0994V61.0994C22 61.6327 22.4 62.0327 22.9333 62.0327H28.2667C28.8 62.0327 29.2 61.6327 29.2 61.0994V51.0994C29.2 50.566 28.8 50.166 28.2667 50.166ZM27.3333 60.166H23.8667V52.0327H27.3333V60.166Z"/>
<path class="sp-blue" fill="#2F347F" d="M57.0001 50.166H51.6667C51.1334 50.166 50.7334 50.566 50.7334 51.0994V61.0994C50.7334 61.6327 51.1334 62.0327 51.6667 62.0327H57.0001C57.5334 62.0327 57.9334 61.6327 57.9334 61.0994V51.0994C57.9334 50.566 57.5334 50.166 57.0001 50.166ZM56.0667 60.166H52.6001V52.0327H56.0667V60.166Z"/>
<path class="sp-blue" fill="#2F347F" d="M67.7335 50.166H62.4001C61.8668 50.166 61.4668 50.566 61.4668 51.0994V61.0994C61.4668 61.6327 61.8668 62.0327 62.4001 62.0327H67.7335C68.2668 62.0327 68.6668 61.6327 68.6668 61.0994V51.0994C68.6668 50.566 68.2668 50.166 67.7335 50.166ZM66.8001 60.166H63.3335V52.0327H66.8001V60.166Z"/>
<path class="sp-blue" fill="#2F347F" d="M44.9336 36.0329C44.9336 33.2996 42.7336 31.0996 40.0002 31.0996C37.2669 31.0996 35.0669 33.2996 35.0669 36.0329C35.0669 38.7663 37.2669 40.9663 40.0002 40.9663C42.7336 40.9663 44.9336 38.7663 44.9336 36.0329ZM36.8669 36.0329C36.8669 34.3663 38.2669 32.9663 39.9336 32.9663C41.6002 32.9663 43.0002 34.3663 43.0002 36.0329C43.0002 37.6996 41.6002 39.0996 39.9336 39.0996C38.2669 39.0996 36.8669 37.7663 36.8669 36.0329Z"/>
<path class="sp-blue" fill="#2F347F" d="M74.6 42.7659L68.6667 24.8326C68.5333 24.4326 68.2 24.1659 67.8 24.1659H43.8667L41.1333 22.0992C41.0667 22.0326 41 22.0326 40.9333 21.9659V7.56589H43.0667V11.6326C43.0667 12.1659 43.4667 12.5659 44 12.5659C44.5333 12.5659 44.9333 12.1659 44.9333 11.6326V6.63255C44.9333 6.09922 44.5333 5.69922 44 5.69922H40C39.4667 5.69922 39.0667 6.09922 39.0667 6.63255V21.8992C38.9333 21.9659 38.8 22.0326 38.7333 22.0992L36 24.1659C35.9333 24.1659 35.8 24.0992 35.7333 24.0992H12.1333C11.7333 24.0992 11.3333 24.3659 11.2667 24.7659L5.33333 42.6992C5.26666 42.9659 5.26666 43.2992 5.46666 43.5659C5.66666 43.8326 5.93333 43.9659 6.2 43.9659H12.2C12.7333 43.9659 13.1333 43.5659 13.1333 43.0326V36.0326C13.1333 35.0992 13.9333 34.2992 14.8667 34.2992C15.8 34.2992 16.6 35.0992 16.6 36.0326V43.0326C16.6 43.0326 16.6 43.0326 16.6 43.0992C16.6 43.0992 16.6 43.0992 16.6 43.1659C16.6 43.6992 17 44.0992 17.5333 44.0992H22.8667C23.4 44.0992 23.8 43.6992 23.8 43.1659V36.0326C23.8 35.0992 24.6 34.2992 25.5333 34.2992C26.4667 34.2992 27.2667 35.0992 27.2667 36.0326V43.0992C27.2667 43.6326 27.6667 44.0326 28.2 44.0326C28.7333 44.0326 29.1333 43.6326 29.1333 43.0992V36.0326C29.1333 34.0326 27.5333 32.4326 25.5333 32.4326C23.5333 32.4326 22 34.0326 22 36.0326V42.0992H18.5333V36.0326C18.5333 34.0326 16.9333 32.4326 14.9333 32.4326C12.9333 32.4326 11.3333 34.0326 11.3333 36.0326V42.0326H7.6L12.9333 26.0326H33.6L30.2 28.6326C29.8 28.9659 29.6667 29.5659 30 29.9659C30.3333 30.3659 30.9333 30.4992 31.3333 30.1659L39.9333 23.6992H40.0667L48.6667 30.1659C48.8667 30.2992 49.0667 30.3659 49.2667 30.3659C49.5333 30.3659 49.8667 30.2326 50 29.9659C50.3333 29.5659 50.2 28.9659 49.8 28.6326L46.4667 26.0992H67.2L72.5333 42.0992H68.6667V36.0326C68.6667 34.0326 67.0667 32.4326 65.0667 32.4326C63.0667 32.4326 61.4667 34.0326 61.4667 36.0326V42.0992H58V36.0326C58 34.0326 56.4 32.4326 54.4 32.4326C52.4 32.4326 50.8 34.0326 50.8 36.0326V43.0992C50.8 43.6326 51.2 44.0326 51.7333 44.0326C52.2667 44.0326 52.6667 43.6326 52.6667 43.0992V36.0326C52.6667 35.0992 53.4667 34.2992 54.4 34.2992C55.3333 34.2992 56.1333 35.0992 56.1333 36.0326V43.0992C56.1333 43.6326 56.5333 44.0326 57.0667 44.0326H62.4C62.9333 44.0326 63.3333 43.6326 63.3333 43.0992V36.0326C63.3333 35.0992 64.1333 34.2992 65.0667 34.2992C66 34.2992 66.8 35.0992 66.8 36.0326V43.0992C66.8 43.6326 67.2 44.0326 67.7333 44.0326H73.7333C74.0667 44.0326 74.3333 43.8992 74.4667 43.6326C74.6667 43.3659 74.7333 43.0326 74.6 42.7659Z"/>
<path class="sp-blue" fill="#2F347F" d="M43.0002 71.4331C43.5336 71.4331 43.9336 71.0331 43.9336 70.4997C43.9336 69.9664 43.5336 69.5664 43.0002 69.5664H37.0002C36.4669 69.5664 36.0669 69.9664 36.0669 70.4997C36.0669 71.0331 36.4669 71.4331 37.0002 71.4331H43.0002Z"/>
<path class="sp-blue" fill="#2F347F" d="M47 73.5664H32.9333C32.4 73.5664 32 73.9664 32 74.4997C32 75.0331 32.4 75.4331 32.9333 75.4331H47C47.5333 75.4331 47.9333 75.0331 47.9333 74.4997C47.9333 73.9664 47.5333 73.5664 47 73.5664Z"/>
<path class="sp-blue" fill="#2F347F" d="M47 43.4316H32.9333C32.4 43.4316 32 43.8316 32 44.365V49.6983C32 50.2316 32.4 50.6316 32.9333 50.6316H47C47.5333 50.6316 47.9333 50.2316 47.9333 49.6983V44.365C47.9333 43.8983 47.5333 43.4316 47 43.4316ZM46.0667 48.8316H33.8667V45.365H46V48.8316H46.0667Z"/>
<path class="sp-red" fill="#DF232F" d="M72.4001 46.166H50.3334C49.8001 46.166 49.4001 46.566 49.4001 47.0994C49.4001 47.6327 49.8001 48.0327 50.3334 48.0327H71.4668V64.166H47.9334V53.766C47.9334 53.2327 47.5334 52.8327 47.0001 52.8327H32.9334C32.4001 52.8327 32.0001 53.2327 32.0001 53.766V64.166H8.46676V48.0327H28.9334C29.4668 48.0327 29.8668 47.6327 29.8668 47.0994C29.8668 46.566 29.4668 46.166 28.9334 46.166H7.53343C7.0001 46.166 6.6001 46.566 6.6001 47.0994C6.6001 47.166 6.6001 47.2327 6.6001 47.2993C6.6001 47.366 6.6001 47.4327 6.6001 47.4993V70.4994C6.6001 71.0327 7.0001 71.4327 7.53343 71.4327H32.9334C33.4668 71.4327 33.8668 71.0327 33.8668 70.4994V54.6994H39.0001V66.4994C39.0001 67.0327 39.4001 67.4327 39.9334 67.4327C40.4668 67.4327 40.8668 67.0327 40.8668 66.4994V54.6994H46.0001V70.4994C46.0001 71.0327 46.4001 71.4327 46.9334 71.4327H72.3334C72.8668 71.4327 73.2668 71.0327 73.2668 70.4994V47.0994C73.3334 46.566 72.9334 46.166 72.4001 46.166ZM32.0001 69.566H8.46676V66.0994H32.0001V69.566ZM71.4668 69.566H47.9334V66.0994H71.4668V69.566Z"/>
<path class="sp-red" fill="#DF232F" d="M47.8 15.6329H52C52.5334 15.6329 52.9334 15.2329 52.9334 14.6996V8.03294C52.9334 7.49961 52.5334 7.09961 52 7.09961C51.4667 7.09961 51.0667 7.49961 51.0667 8.03294V13.7663H48.7334V9.03294C48.7334 8.49961 48.3334 8.09961 47.8 8.09961C47.2667 8.09961 46.8667 8.49961 46.8667 9.03294V14.6996C46.8667 15.1663 47.2667 15.6329 47.8 15.6329Z"/>
</svg>
