<svg width="80" height="81" viewBox="0 0 80 81" fill="none" xmlns="http://www.w3.org/2000/svg">
<path class="sp-red" fill="#DF232F" d="M39.9999 75.1004C20.9332 75.1004 5.3999 59.5671 5.3999 40.5004C5.3999 21.4337 20.9332 5.90039 39.9999 5.90039C59.0666 5.90039 74.6666 21.4337 74.6666 40.5004C74.6666 59.5671 59.1332 75.1004 39.9999 75.1004ZM39.9999 7.76706C21.9999 7.76706 7.33324 22.5004 7.33324 40.5004C7.33324 58.5004 21.9999 73.2337 40.0666 73.2337C58.1332 73.2337 72.7999 58.5671 72.7999 40.5004C72.7999 22.4337 58.0666 7.76706 39.9999 7.76706Z"/>
<path class="sp-blue" fill="#2F347F" d="M51.1333 68.3657C50.8 68.3657 50.5333 68.299 50.2 68.2323C49.4667 67.9657 48.8667 67.4324 48.4667 66.7657L40 49.7657L31.5333 66.7657C31.2 67.499 30.6 67.9657 29.8 68.2323C29.0667 68.499 28.2667 68.4324 27.5333 68.099C26.2 67.4324 25.5333 65.8323 26.0667 64.4324L33.0667 45.8324V35.5657L16.6667 30.3657C15.2667 29.899 14.4 28.4324 14.8 27.0324C15.1333 25.5657 16.6 24.699 18.0667 24.9657L39.2667 28.899H40.8L62 24.899C63.4667 24.6324 64.8667 25.5657 65.2667 26.9657C65.6 28.4324 64.8 29.899 63.4 30.299L47 35.499V45.699L54 64.299C54.5333 65.699 53.9333 67.299 52.5333 67.9657C52.0667 68.2323 51.6 68.3657 51.1333 68.3657ZM40 46.699C40.3333 46.699 40.6667 46.899 40.8667 47.2323L50.2 65.899C50.3333 66.1657 50.5333 66.3657 50.8 66.4324C51.0667 66.499 51.3333 66.499 51.6 66.3657C52.0667 66.099 52.3333 65.5657 52.1333 65.0323L45.1333 46.299C45.0667 46.1657 45.0667 46.099 45.0667 45.9657V34.899C45.0667 34.499 45.3333 34.099 45.7333 33.9657L62.8 28.5657C63.2667 28.4324 63.5333 27.9657 63.4 27.4324C63.2667 26.899 62.8 26.6324 62.3333 26.7657L41.0667 30.699C41 30.699 40.9333 30.699 40.8667 30.699H39.1333C39.0667 30.699 39 30.699 38.9333 30.699L17.6667 26.7657C17.2 26.699 16.7333 26.9657 16.6 27.4324C16.4667 27.899 16.7333 28.3657 17.2 28.5657L34.2667 33.9657C34.6667 34.099 34.9333 34.4324 34.9333 34.899V45.9657C34.9333 46.099 34.9333 46.1657 34.8667 46.299L27.9333 65.0323C27.7333 65.5657 27.9333 66.099 28.4667 66.3657C29 66.6324 29.6 66.4323 29.8667 65.899L39.2 47.2323C39.3333 46.899 39.6667 46.699 40 46.699Z"/>
<path class="sp-blue" fill="#2F347F" d="M40.0002 26.4328C36.2002 26.4328 33.0669 23.3661 33.0669 19.4995C33.0669 15.6328 36.2002 12.6328 40.0002 12.6328C43.8002 12.6328 46.9336 15.6995 46.9336 19.5661C46.9336 23.4328 43.8669 26.4328 40.0002 26.4328ZM40.0002 14.5661C37.2002 14.5661 35.0002 16.8328 35.0002 19.5661C35.0002 22.3661 37.2669 24.5661 40.0002 24.5661C42.7336 24.5661 45.0002 22.2995 45.0002 19.5661C45.0669 16.7661 42.8002 14.5661 40.0002 14.5661Z"/>
</svg>
