<svg width="80" height="81" viewBox="0 0 80 81" fill="none" xmlns="http://www.w3.org/2000/svg">
<path class="sp-blue" fill="#2F347F" d="M24.4002 55.6992H20.1335C19.6002 55.6992 19.2002 56.0992 19.2002 56.6326C19.2002 57.1659 19.6002 57.5659 20.1335 57.5659H24.4002C24.9335 57.5659 25.3335 57.1659 25.3335 56.6326C25.3335 56.0992 24.9335 55.6992 24.4002 55.6992Z"/>
<path class="sp-blue" fill="#2F347F" d="M19.8669 50.4993C19.8669 49.766 19.2669 49.166 18.5335 49.166C17.8002 49.166 17.2002 49.766 17.2002 50.4993C17.2002 51.2327 17.8002 51.8327 18.5335 51.8327C19.2669 51.8327 19.8669 51.2327 19.8669 50.4993Z"/>
<path class="sp-blue" fill="#2F347F" d="M25.6004 49.166C24.8671 49.166 24.2671 49.766 24.2671 50.4993C24.2671 51.2327 24.8671 51.8327 25.6004 51.8327C26.3338 51.8327 26.9338 51.2327 26.9338 50.4993C26.9338 49.766 26.3338 49.166 25.6004 49.166Z"/>
<path class="sp-blue" fill="#2F347F" d="M60.6668 55.5664H56.4001C55.8668 55.5664 55.4668 55.9664 55.4668 56.4997C55.4668 57.0331 55.8668 57.4331 56.4001 57.4331H60.6668C61.2001 57.4331 61.6001 57.0331 61.6001 56.4997C61.6001 55.9664 61.2001 55.5664 60.6668 55.5664Z"/>
<path class="sp-blue" fill="#2F347F" d="M56.1335 50.3665C56.1335 49.6332 55.5335 49.0332 54.8001 49.0332C54.0668 49.0332 53.4668 49.6332 53.4668 50.3665C53.4668 51.0999 54.0668 51.6999 54.8001 51.6999C55.5335 51.6999 56.1335 51.0999 56.1335 50.3665Z"/>
<path class="sp-blue" fill="#2F347F" d="M61.867 49.0332C61.1337 49.0332 60.5337 49.6332 60.5337 50.3665C60.5337 51.0999 61.1337 51.6999 61.867 51.6999C62.6004 51.6999 63.2004 51.0999 63.2004 50.3665C63.2004 49.6332 62.6004 49.0332 61.867 49.0332Z"/>
<path class="sp-blue" fill="#2F347F" d="M46.8669 53.2997C47.1336 53.2997 47.4003 53.2997 47.7336 53.233C48.6003 58.233 52.8669 61.833 58.0003 61.833C63.8003 61.833 68.5336 57.0997 68.5336 51.2997V50.4997C68.5336 49.633 68.4003 48.7663 68.2003 47.8997L69.1336 47.4997C69.4669 47.3663 69.7336 47.033 69.7336 46.633C69.7336 39.6997 65.9336 35.833 59.0669 35.6997C56.9336 34.433 54.9336 33.9663 53.2003 34.433C50.9336 35.033 49.8003 36.833 49.8003 36.8997C49.7336 37.033 49.6669 37.233 49.6669 37.3663C47.1336 38.8997 45.9336 41.8997 45.9336 46.5663V52.2997C45.9336 52.8997 46.3336 53.2997 46.8669 53.2997ZM66.6669 51.2997C66.6669 56.033 62.8003 59.9663 58.0003 59.9663C53.6669 59.9663 50.0003 56.7663 49.4669 52.4997C51.8669 50.833 53.0669 47.1663 53.6003 44.9663C55.6669 46.6997 60.0669 49.4997 66.4003 48.433C66.6003 49.1663 66.6669 49.833 66.6669 50.5663V51.2997ZM47.8003 46.633C47.8003 40.9663 49.5336 38.4997 53.8003 38.0997C54.3336 38.033 54.7336 37.5663 54.6669 37.0997C54.6003 36.6997 54.3336 36.3663 53.9336 36.233C55.2003 36.033 56.6669 36.433 58.3336 37.433C58.4669 37.4997 58.6669 37.5663 58.8669 37.5663C64.6669 37.5663 67.7336 40.3663 67.9336 45.9663L67.2003 46.233C58.8669 48.233 54.0669 42.633 53.8669 42.3663C53.6003 42.0997 53.2669 41.9663 52.8669 42.033C52.5336 42.0997 52.2669 42.433 52.2003 42.833C51.8669 44.9663 50.5336 50.1663 47.9336 51.1663V46.633H47.8003Z"/>
<path class="sp-blue" fill="#2F347F" d="M11.5334 52.5657C12.2001 57.7657 16.6001 61.8323 22.0001 61.8323C27.2667 61.8323 31.6667 57.899 32.4001 52.8323C32.9334 52.699 33.6001 52.499 34.2001 51.899C35.1334 51.0323 35.5334 49.699 35.5334 47.899C35.5334 47.7657 35.5334 42.7657 35.5334 42.7657C35.5334 38.2323 33.2001 35.299 29.1334 34.7657C27.0667 34.4323 25.3334 35.0323 24.6001 35.3657C23.6667 34.9657 21.2001 34.2323 17.3334 34.4323C12.4667 34.6323 8.7334 38.3657 8.7334 42.899V48.9657C8.7334 51.699 10.6001 52.499 11.5334 52.5657ZM30.6667 51.299C30.6667 56.0323 26.8001 59.9657 22.0001 59.9657C17.2001 59.9657 13.3334 56.099 13.3334 51.299V50.499C13.3334 49.5657 13.4667 48.699 13.7334 47.8323C19.0001 49.299 20.6001 48.899 23.9334 45.3657C25.2667 45.2323 26.7334 45.099 27.6667 44.9657C27.8667 45.7657 28.2001 46.9657 28.8667 47.7657C29.4001 48.4323 30.0667 48.8323 30.6001 49.0323V50.2323C30.6001 50.299 30.6001 50.3657 30.6001 50.499V51.299H30.6667ZM10.6001 42.8323C10.6001 39.299 13.6001 36.4323 17.4001 36.2323C21.8001 36.0323 24.1334 37.1657 24.1334 37.1657C24.4001 37.299 24.7334 37.299 25.0667 37.1657C25.0667 37.1657 26.8001 36.299 28.8667 36.5657C32.8001 37.099 33.6667 40.2323 33.6667 42.699V47.8323C33.6667 49.0323 33.4667 49.899 32.9334 50.4323C32.8001 50.5657 32.6667 50.6323 32.5334 50.699L32.4667 48.299C32.4667 47.899 32.2001 47.499 31.8001 47.4323C31.8001 47.4323 30.9334 47.1657 30.3334 46.499C29.8667 45.9657 29.5334 44.5657 29.4667 43.8323C29.4001 43.299 28.9334 42.9657 28.4667 43.0323C28.4667 43.0323 25.6001 43.299 23.4667 43.5657C23.2667 43.5657 23.0667 43.699 22.8667 43.8323C19.6667 47.1657 18.8667 47.3657 13.4001 45.7657C12.8667 45.6323 12.4001 45.899 12.2001 46.4323C12.2001 46.499 12.2001 46.5657 12.1334 46.6323C11.7334 47.8323 11.4667 49.1657 11.4667 50.499V50.6323C11.1334 50.499 10.6001 50.099 10.6001 48.8323V42.8323Z"/>
<path class="sp-blue" fill="#2F347F" d="M27.7336 62.4989C27.4669 62.4322 27.2002 62.4322 27.0002 62.5655C26.8002 62.6989 26.6002 62.8989 26.5336 63.0989C25.8669 65.0989 24.0669 66.4322 22.0002 66.4322C19.9336 66.4322 18.1336 65.0989 17.4669 63.0989C17.4002 62.8322 17.2002 62.6322 17.0002 62.5655C16.8002 62.4989 16.5336 62.4322 16.2669 62.4989C10.9336 64.3655 6.86689 68.6989 5.26689 74.1655C5.13355 74.6989 5.40022 75.1655 5.93355 75.3655C6.46689 75.4989 6.93355 75.2322 7.13355 74.6989C8.46689 70.0989 11.8002 66.4322 16.0669 64.6322C17.2002 66.8989 19.4669 68.3655 22.0002 68.3655C24.5336 68.3655 26.8002 66.8989 27.9336 64.6322C32.2669 66.4322 35.6002 70.0989 36.8669 74.6989C37.0002 75.0989 37.3336 75.3655 37.8002 75.3655C37.8669 75.3655 38.0002 75.3655 38.0669 75.2989C38.6002 75.1655 38.8669 74.6322 38.7336 74.0989C37.1336 68.6322 33.0002 64.2989 27.7336 62.4989Z"/>
<path class="sp-blue" fill="#2F347F" d="M74.8004 74.0991C73.2004 68.6325 69.1338 64.2991 63.8004 62.4325C63.5338 62.3658 63.2671 62.3658 63.0671 62.4991C62.8671 62.6325 62.6671 62.8325 62.6004 63.0325C61.9338 65.0325 60.1338 66.3658 58.0671 66.3658C56.0004 66.3658 54.2004 65.0325 53.5338 63.0325C53.4671 62.7658 53.2671 62.5658 53.0671 62.4991C52.8671 62.4325 52.6004 62.3658 52.3338 62.4325C47.0004 64.2991 42.9338 68.6325 41.3338 74.0991C41.2004 74.6325 41.4671 75.0991 42.0004 75.2991C42.5338 75.4325 43.0005 75.1658 43.2005 74.6325C44.5338 70.0325 47.8671 66.3658 52.1338 64.5658C53.2671 66.8325 55.5338 68.2991 58.0671 68.2991C60.6004 68.2991 62.8671 66.8325 64.0004 64.5658C68.3338 66.3658 71.6671 70.0325 72.9338 74.6325C73.0671 75.0325 73.4004 75.2991 73.8671 75.2991C73.9338 75.2991 74.0671 75.2991 74.1338 75.2325C74.6004 75.1658 74.9338 74.6325 74.8004 74.0991Z"/>
<path class="sp-red" fill="#DF232F" d="M38.867 11.2322C38.8004 11.0988 38.7337 11.0322 38.667 10.9655L36.4004 8.69883C34.867 7.1655 32.867 6.29883 30.667 6.29883C28.5337 6.29883 26.467 7.1655 24.9337 8.69883C23.4004 10.2322 22.5337 12.2322 22.5337 14.4322C22.5337 16.5655 23.4004 18.6322 24.9337 20.1655L36.667 31.7655C36.867 31.9655 37.067 32.0322 37.3337 32.0322C37.4004 32.0322 37.5337 32.0322 37.6004 31.9655C37.9337 31.8322 38.2004 31.5655 38.267 31.2322L39.5337 24.4988C39.6004 24.2988 39.5337 24.0988 39.467 23.8988L37.7337 20.6322L41.0004 17.3655C41.267 17.0988 41.3337 16.6988 41.2004 16.2988L38.867 11.2322ZM35.867 19.8322C35.6004 20.0988 35.5337 20.5655 35.7337 20.9655L37.667 24.5655L36.8004 29.2322L26.3337 18.7655C25.1337 17.5655 24.5337 16.0322 24.5337 14.4322C24.5337 12.8322 25.2004 11.2322 26.3337 10.0988C27.467 8.96549 29.067 8.29883 30.667 8.29883C32.3337 8.29883 33.867 8.96549 35.0004 10.0988L37.1337 12.2322L39.067 16.6322L35.867 19.8322Z"/>
<path class="sp-red" fill="#DF232F" d="M55.0003 8.63242C53.467 7.09909 51.467 6.23242 49.267 6.23242C47.1337 6.23242 45.067 7.09909 43.5337 8.63242L41.3337 10.8991C41.0003 11.2324 40.9337 11.7658 41.267 12.1658L44.6003 16.5658L41.867 19.2991C41.6003 19.5658 41.5337 19.9658 41.667 20.2991L42.867 23.6324L41.8003 30.8991C41.7337 31.2991 41.9337 31.6991 42.3337 31.8991C42.467 31.9658 42.6003 32.0324 42.7337 32.0324C43.0003 32.0324 43.2003 31.9658 43.4003 31.7658L55.067 20.0991C56.6003 18.5658 57.467 16.5658 57.467 14.3658C57.467 12.1658 56.5337 10.1658 55.0003 8.63242ZM53.667 18.6991L44.067 28.3658L44.8003 23.6991C44.8003 23.5658 44.8003 23.3658 44.7337 23.2324L43.667 20.2324L46.6003 17.2991C46.9337 16.9658 47.0003 16.4324 46.667 16.0324L43.3337 11.6324L45.0003 9.96575C46.2003 8.76575 47.7337 8.16575 49.3337 8.16575C51.0003 8.16575 52.5337 8.83242 53.667 9.96575C54.867 11.1658 55.467 12.6991 55.467 14.2991C55.467 15.8991 54.867 17.4991 53.667 18.6991Z"/>
</svg>
