<svg width="80" height="81" viewBox="0 0 80 81" fill="none" xmlns="http://www.w3.org/2000/svg">
<path class="sp-blue" fill="#2F347F" d="M40.8664 42.2341C40.3331 42.2341 39.9331 41.8341 39.9331 41.3008V41.2341C39.9331 40.7008 40.3331 40.3008 40.8664 40.3008C41.3998 40.3008 41.7998 40.7008 41.7998 41.2341V41.3008C41.7998 41.8341 41.3998 42.2341 40.8664 42.2341Z"/>
<path class="sp-red" fill="#DF232F" d="M28.8 9.70013V9.1668C28.8 7.3668 27.3333 5.9668 25.4666 5.9668L23.3333 6.03346C21.5333 6.03346 20.1333 7.50013 20.1333 9.30013L20.2 13.7001C20.2 15.8335 21.9333 17.5001 24.0666 17.5001H24.7333C24.8 17.5001 24.8 17.5001 24.8666 17.5001L26.3333 17.3001C26.4666 17.3001 26.6 17.2335 26.7333 17.1668L31.3333 14.2335C32.5333 13.5001 32.8666 11.9001 32.1333 10.6335C31.4 9.5668 30.0666 9.1668 28.8 9.70013ZM30.2666 12.6335L25.8666 15.4335L24.6666 15.6335H24.0666C23 15.6335 22.0666 14.7668 22.0666 13.7001L22 9.30013C22 8.5668 22.6 7.90013 23.3333 7.90013L25.5333 7.83346C26.2666 7.83346 26.9333 8.43346 26.9333 9.1668L27 11.3668C27 11.7001 27.2 12.0335 27.5333 12.1668C27.8666 12.3001 28.2 12.3001 28.4666 12.1001L29.5333 11.3668C29.8666 11.1668 30.3333 11.3001 30.5333 11.5668C30.7333 11.9668 30.6 12.4335 30.2666 12.6335Z"/>
<path class="sp-red" fill="#DF232F" d="M17.333 16.3664C17.8663 16.3664 18.2663 15.9664 18.2663 15.4331L18.1997 8.49974C18.1997 7.96641 17.7997 7.56641 17.2663 7.56641C16.733 7.56641 16.333 7.96641 16.333 8.49974L16.3997 15.4331C16.3997 15.9664 16.7997 16.3664 17.333 16.3664Z"/>
<path class="sp-red" fill="#DF232F" d="M27.0665 47.8329L18.8665 45.2329C18.1998 45.0329 17.6665 44.5663 17.3998 43.9663C17.0665 43.3663 16.9998 42.6996 17.2665 42.0329L21.5331 27.4996C21.6665 26.9663 21.3998 26.4996 20.8665 26.2996C20.3331 26.1663 19.8665 26.4329 19.6665 26.9663L15.4665 41.4329C15.0665 42.5663 15.1998 43.7663 15.7331 44.7663C16.2665 45.7663 17.1998 46.5663 18.3331 46.9663L26.5331 49.5663C26.5998 49.5663 26.7331 49.6329 26.7998 49.6329C27.1998 49.6329 27.5998 49.3663 27.7331 48.9663C27.8665 48.5663 27.5331 48.0329 27.0665 47.8329Z"/>
<path class="sp-red" fill="#DF232F" d="M27.133 35.4342L24.2663 34.5676C23.733 34.3676 23.133 34.4342 22.5996 34.7676C22.133 35.0342 21.733 35.5009 21.5996 36.0342L20.0663 41.1009C19.733 42.1676 20.333 43.3676 21.4663 43.7676L24.333 44.6342C24.533 44.7009 24.733 44.7009 24.933 44.7009C25.7996 44.7009 26.6663 44.1009 26.9996 43.1676L28.533 38.1009C28.8663 37.0342 28.2663 35.8342 27.133 35.4342ZM26.733 37.5009L25.1996 42.5676C25.133 42.7009 24.9996 42.7676 24.933 42.7676L22.0663 41.9009C21.933 41.8342 21.8663 41.7009 21.8663 41.6342L23.3996 36.5676C23.3996 36.5009 23.4663 36.4342 23.533 36.3676H23.5996H23.6663L26.533 37.2342C26.6663 37.3009 26.733 37.4342 26.733 37.5009Z"/>
<path class="sp-red" fill="#DF232F" d="M74.4665 67.0341L70.8665 53.5008C70.4665 51.9008 68.7999 50.9674 67.2665 51.4341L61.7332 52.9008L59.7999 45.5674L60.5999 45.3008C61.1332 45.1674 61.3999 44.7008 61.2665 44.1674C61.1332 43.6341 60.6665 43.3674 60.1332 43.5008C60.1332 43.5008 58.4665 43.9674 58.3999 43.9674C57.8665 44.1008 57.5999 44.6341 57.7332 45.1008L64.8665 71.6341L65.2665 73.1008C65.4665 73.9008 65.9999 74.5008 66.6665 74.9008C67.1332 75.1674 67.5999 75.3008 68.1332 75.3008C68.3999 75.3008 68.6665 75.3008 68.8665 75.1674C69.6665 74.9674 70.2665 74.4341 70.6665 73.7674C71.0665 73.1008 71.1332 72.3008 70.9332 71.5674L70.7999 70.9674L72.4665 70.5008C73.1999 70.3008 73.8665 69.8341 74.2665 69.1008C74.5332 68.5674 74.6665 67.7674 74.4665 67.0341ZM68.8665 72.9674C68.7332 73.2341 68.4665 73.3674 68.1999 73.4341C67.9332 73.5008 67.6665 73.4341 67.3999 73.3008C67.1332 73.1674 66.9999 72.9008 66.9332 72.6341L66.7999 72.0341L68.8665 71.5008L68.9999 72.1674C69.0665 72.4341 68.9999 72.7008 68.8665 72.9674ZM71.8665 68.8341L69.2665 69.5008L66.3332 70.3008L62.1332 54.7674L67.6665 53.3008C68.1999 53.1674 68.7999 53.5008 68.9332 54.0341L72.5332 67.5674C72.7332 68.1008 72.3999 68.6341 71.8665 68.8341Z"/>
<path class="sp-blue" fill="#2F347F" d="M17.5333 73.3672H14.1999C13.6666 73.3672 13.2666 73.7672 13.2666 74.3005C13.2666 74.8339 13.6666 75.2339 14.1999 75.2339H17.5333C18.0666 75.2339 18.4666 74.8339 18.4666 74.3005C18.4666 73.7672 18.0666 73.3672 17.5333 73.3672Z"/>
<path class="sp-blue" fill="#2F347F" d="M39.5334 73.3672H31.5334C31.0001 73.3672 30.6001 73.7672 30.6001 74.3005C30.6001 74.8339 31.0001 75.2339 31.5334 75.2339H39.5334C40.0668 75.2339 40.4668 74.8339 40.4668 74.3005C40.4668 73.7672 40.0668 73.3672 39.5334 73.3672Z"/>
<path class="sp-blue" fill="#2F347F" d="M9.53327 73.6328C9.33327 73.8328 9.2666 74.0328 9.2666 74.2995C9.2666 74.4328 9.2666 74.5662 9.33327 74.6328C9.39994 74.7662 9.4666 74.8328 9.53327 74.9662C9.73327 75.1662 9.93327 75.2328 10.1999 75.2328C10.4666 75.2328 10.6666 75.1662 10.8666 74.9662C11.0666 74.7662 11.1333 74.5662 11.1333 74.2995C11.1333 74.0328 10.9999 73.8328 10.8666 73.6328C10.5333 73.2995 9.8666 73.2995 9.53327 73.6328Z"/>
<path class="sp-blue" fill="#2F347F" d="M5.53327 73.6328C5.33327 73.8328 5.2666 74.0328 5.2666 74.2995C5.2666 74.5662 5.33327 74.7662 5.53327 74.9662C5.59994 75.0328 5.73327 75.0995 5.8666 75.1662C5.99994 75.2328 6.13327 75.2328 6.19994 75.2328C6.2666 75.2328 6.4666 75.2328 6.53327 75.1662C6.6666 75.0995 6.73327 75.0328 6.8666 74.9662C7.0666 74.7662 7.13327 74.5662 7.13327 74.2995C7.13327 74.0328 7.0666 73.8328 6.8666 73.6328C6.53327 73.2995 5.8666 73.2995 5.53327 73.6328Z"/>
<path class="sp-blue" fill="#2F347F" d="M42 19.9655C42 19.8988 42 19.8322 42 19.7655C42 19.6988 41.9333 19.6322 41.9333 19.5655C41.9333 19.4988 41.8666 19.4322 41.8666 19.4322C41.8666 19.3655 41.8 19.3655 41.7333 19.2988C41.4 18.9655 40.7333 18.9655 40.4 19.2988C40.3333 19.3655 40.3333 19.3655 40.2666 19.4322C40.2666 19.4988 40.2 19.5655 40.2 19.5655C40.2 19.6322 40.1333 19.6988 40.1333 19.7655C40.1333 19.8322 40.1333 19.8988 40.1333 19.9655C40.1333 20.2322 40.2 20.4322 40.4 20.6322C40.6 20.8322 40.8 20.8988 41.0666 20.8988C41.3333 20.8988 41.5333 20.7655 41.7333 20.6322C41.9333 20.4322 42 20.1655 42 19.9655Z"/>
<path class="sp-blue" fill="#2F347F" d="M46.6666 19.2999C46.5999 19.3665 46.5999 19.3665 46.5332 19.4332C46.5332 19.4999 46.4666 19.5665 46.4666 19.5665C46.4666 19.6332 46.3999 19.6999 46.3999 19.7665C46.3999 19.8332 46.3999 19.8999 46.3999 19.9665C46.3999 20.0999 46.3999 20.2332 46.4666 20.3665C46.5332 20.4999 46.5999 20.5665 46.6666 20.6999C46.7332 20.7665 46.8666 20.8332 46.9999 20.8999C47.1332 20.9665 47.2666 20.9665 47.3999 20.9665C47.6666 20.9665 47.8666 20.8332 48.0666 20.6999C48.1332 20.6332 48.1999 20.4999 48.2666 20.3665C48.3332 20.2332 48.3332 20.0999 48.3332 19.9665C48.3332 19.8999 48.3332 19.8332 48.3332 19.7665C48.3332 19.6999 48.3332 19.6332 48.2666 19.5665C48.2666 19.4999 48.1999 19.4332 48.1999 19.4332C48.1332 19.3665 48.1332 19.3665 48.0666 19.2999C47.9999 19.2332 47.9999 19.2332 47.9332 19.1665C47.8666 19.0999 47.7999 19.0999 47.7999 19.0999C47.7332 19.0999 47.6666 19.0332 47.5999 19.0332C47.4666 19.0332 47.3332 19.0332 47.1999 19.0332C47.1332 19.0332 47.0666 19.0332 46.9999 19.0999C46.9332 19.0999 46.8666 19.1665 46.8666 19.1665C46.7332 19.1665 46.7332 19.2332 46.6666 19.2999Z"/>
<path class="sp-blue" fill="#2F347F" d="M45.7334 22.7659C45.2668 23.0993 44.8001 23.2993 44.3334 23.2993C43.8668 23.2993 43.4001 23.0993 43.0668 22.8326C42.6668 22.4993 42.0668 22.5659 41.7334 22.9659C41.4001 23.3659 41.4668 23.9659 41.8668 24.2993C42.5334 24.8993 43.4668 25.2326 44.3334 25.2326C45.2001 25.2326 46.0668 24.9659 46.8668 24.3659C47.2668 24.0326 47.4001 23.4326 47.0668 23.0326C46.7334 22.6326 46.1334 22.4326 45.7334 22.7659Z"/>
<path class="sp-blue" fill="#2F347F" d="M36.3332 18.7664C36.3332 18.7664 36.3999 18.7664 36.3332 18.7664L36.3999 20.4997C36.3999 25.2331 40.1332 29.0997 44.6666 29.0997C49.1999 29.0997 52.9332 25.2331 52.9332 20.4997V16.8997C53.1332 16.6997 53.2666 16.4331 53.2666 16.1664C53.2666 11.9664 50.4666 9.49974 45.3332 9.23307V8.49974C45.3332 7.96641 44.9332 7.56641 44.3999 7.56641C39.3999 7.56641 35.3999 11.6331 35.3999 16.5664V17.8331C35.3999 18.3664 35.7999 18.7664 36.3332 18.7664ZM51.0666 20.4997C51.0666 24.2331 48.1999 27.2331 44.6666 27.2331C41.1332 27.2331 38.2666 24.2331 38.2666 20.4997V18.5664C39.7999 18.1664 40.5999 17.4331 41.0666 16.6331C43.2666 18.1664 47.3332 18.7664 51.0666 17.6331V20.4997ZM37.2666 16.5664C37.2666 12.9664 39.9332 9.96641 43.4666 9.49974V10.1664C43.4666 10.6997 43.8666 11.0997 44.3999 11.0997C48.7999 11.0997 51.0666 12.5664 51.3332 15.5664C47.1332 17.2331 42.4666 16.0997 41.3999 14.4331C41.1999 14.0997 40.7332 13.8997 40.3332 14.0331C39.9332 14.1664 39.6666 14.4997 39.6666 14.9664C39.6666 14.9664 39.5999 16.4997 37.3332 16.8331H37.2666V16.5664Z"/>
<path class="sp-blue" fill="#2F347F" d="M65.7998 40.5658L64.7332 36.6991C64.3332 35.1658 62.6665 34.2324 61.1332 34.6324L54.1332 36.5658L53.5998 36.6991C50.7332 37.1658 47.6665 37.2991 44.7332 32.9658C44.4665 31.4324 42.9332 30.0324 41.4665 29.2991C39.5332 28.3658 37.6665 28.3658 36.3332 29.2991C36.3332 29.2991 36.3332 29.2991 36.2665 29.3658C30.5998 25.3658 29.1998 19.3658 29.1332 19.0991C29.0665 18.6324 28.6665 18.2324 28.1998 18.2324C27.6665 18.2324 27.2665 18.6324 27.2665 19.1658C27.2665 20.0324 29.7332 29.0324 38.7332 32.8991C38.8665 32.9658 38.9998 32.9658 39.1332 32.9658C39.4665 32.9658 39.8665 32.7658 39.9998 32.3658C40.1998 31.8991 39.9998 31.2991 39.5332 31.0991C39.0665 30.8991 38.6665 30.6991 38.2665 30.4991C38.9998 30.3658 39.9332 30.6324 40.6665 30.9658C41.9332 31.6324 42.9332 32.6991 42.9332 33.4991C42.9332 33.8324 42.8665 34.0991 42.6665 34.4324C42.5998 34.4991 42.5998 34.4991 42.5332 34.5658C42.3998 34.8991 42.1332 35.1658 41.9332 35.5658C41.0665 36.8324 40.0665 38.3658 40.0665 40.9658V41.0324C39.9998 41.1658 39.9998 41.2991 39.9998 41.4324C40.1332 44.6324 41.1998 46.7658 41.6665 47.5658C41.5998 47.8991 41.4665 48.3658 41.2665 48.8991C40.7332 50.2991 39.5998 52.1658 37.1998 52.7658C34.3332 53.4991 32.3998 51.0324 31.9998 50.4324C30.8665 45.3658 31.1998 40.8991 32.9332 37.0324C33.7332 37.5658 34.5332 38.0324 35.3998 38.4991C35.5332 38.5658 35.6665 38.6324 35.8665 38.6324C36.1998 38.6324 36.5332 38.4324 36.7332 38.0991C36.9998 37.6324 36.7998 37.0991 36.3332 36.8324C24.3332 30.4324 22.7332 20.2991 22.5998 19.1658C22.5332 18.6324 22.0665 18.2991 21.5332 18.3658C20.9998 18.4324 20.6665 18.8991 20.7332 19.4324C20.7998 20.2324 21.2665 23.0991 23.1998 26.6324C25.1332 30.2324 27.8665 33.3658 31.3332 35.8991C29.6665 39.4991 29.0665 43.5658 29.6665 48.0324C29.5998 48.0991 29.5998 48.2324 29.5998 48.3658L29.3332 49.9657C28.5998 55.6991 28.2665 58.3658 20.9998 63.0324C20.7998 63.1658 17.2665 65.2991 17.2665 65.2991C17.0665 65.4324 16.9332 65.6324 16.8665 65.8991C16.7998 66.1657 16.8665 66.4324 16.9998 66.6324L22.1998 74.8991C22.3332 75.1657 22.5998 75.2991 22.8665 75.3657C22.9332 75.3657 22.9332 75.3657 22.9998 75.3657C23.2665 75.3657 23.4665 75.2991 23.6665 75.0991L23.7332 75.0324C24.7332 74.3657 25.3998 73.3657 25.6665 72.1657C25.7998 71.4991 25.7998 70.7658 25.6665 70.0991C33.7998 64.8324 36.1998 60.2991 37.1998 54.6991C37.2665 54.6991 37.2665 54.6991 37.3332 54.6991C37.3998 54.8991 37.4665 55.0324 37.6665 55.1658L37.9332 55.3658C43.1998 59.1658 45.3332 61.1658 45.1332 69.7658C45.1332 69.8991 45.1332 69.9657 45.1998 70.0991C45.1998 70.1657 45.1332 70.2991 45.1332 70.3657V74.4324C45.1332 74.9657 45.5332 75.3657 46.0665 75.3657H55.2665C55.7998 75.3657 56.1998 74.9657 56.1998 74.4324V74.2324C56.1998 72.2991 54.9998 70.5658 53.3332 69.8324C53.3332 69.7657 53.3998 69.6324 53.3998 69.5657C53.6665 56.7657 48.6665 52.7658 43.1998 48.6991C43.3998 47.9658 43.4665 47.4324 43.4665 47.3658C43.4665 47.0991 43.3998 46.8991 43.2665 46.6991C43.2665 46.6991 42.0665 45.0324 41.7998 42.2324C43.2665 43.3658 44.8665 44.1658 46.6665 44.6991C48.2665 45.1658 49.7332 45.2991 51.0665 45.2991C52.7332 45.2991 54.0665 45.0324 54.9332 44.8991C55.4665 44.8324 55.7998 44.2991 55.6665 43.8324C55.5332 43.3658 55.0665 42.9658 54.5998 43.0991C53.1332 43.3658 50.3998 43.8324 47.2665 42.8991C45.2665 42.2991 43.5332 41.2324 41.9332 39.8324C42.1332 38.4324 42.7998 37.4991 43.3998 36.5658C43.5998 36.2991 43.7998 36.0324 43.9332 35.6991C43.9998 35.6324 44.0665 35.5658 44.1332 35.4324C44.1332 35.4324 44.1332 35.3658 44.1998 35.3658C47.3332 38.9658 50.6665 39.0324 53.9332 38.4991L55.5332 38.0991L56.4665 41.2991C56.5998 41.6991 56.9332 41.9657 57.3998 41.9657C57.4665 41.9657 57.5998 41.9658 57.6665 41.8991C58.1998 41.7658 58.4665 41.2324 58.3332 40.6991L57.3332 37.6324L61.5998 36.4991C62.1332 36.3658 62.7332 36.6991 62.8665 37.2324L63.9332 41.0991C64.0665 41.6324 63.7332 42.2324 63.1998 42.3657C62.6665 42.4991 62.3998 43.0324 62.5332 43.4991C62.6665 43.8991 62.9998 44.1658 63.4665 44.1658C63.5332 44.1658 63.5998 44.1658 63.7332 44.0991C65.3332 43.7658 66.2665 42.1658 65.7998 40.5658ZM23.7998 71.6991C23.6665 72.1657 23.4665 72.6324 23.1998 72.9657L19.0665 66.4324L20.8665 65.2991L23.3998 69.2991C23.7998 69.9657 23.9332 70.8991 23.7998 71.6991ZM24.9332 68.2324L22.4665 64.2991C29.1998 59.9657 30.2665 56.8324 30.9332 52.1658C31.7332 53.0991 33.1998 54.3658 35.2665 54.6991C34.3332 59.6324 32.1332 63.5658 24.9332 68.2324ZM54.1998 73.4991H46.9998V71.2991H51.3998C52.7332 71.2991 53.8665 72.2324 54.1998 73.4991ZM42.5332 50.5658C47.7332 54.4991 51.7332 57.9658 51.5332 69.4324C51.4665 69.4324 51.4665 69.4324 51.3998 69.4324H46.9998C47.1332 60.3657 44.5332 57.8991 39.2665 53.9657C40.8665 53.0991 41.8665 51.7658 42.5332 50.5658Z"/>
</svg>
