<?xml version="1.0" encoding="utf-8"?>
<!-- Generator: Adobe Illustrator 26.0.1, SVG Export Plug-In . SVG Version: 6.00 Build 0)  -->
<svg version="1.1" id="Calque_1" xmlns="http://www.w3.org/2000/svg" xmlns:xlink="http://www.w3.org/1999/xlink" x="0px" y="0px"
	 viewBox="0 0 300 30" style="enable-background:new 0 0 300 30;" xml:space="preserve">
<style type="text/css">
	.st0{fill:#E10814;}
	.st1{fill:#383838;}
</style>
<g>
	<path class="st0" d="M6.7,7.6h8.2V10H9.5v3.3H14v2.4H9.5v3.6h5.3v2.4H6.7V7.6z"/>
	<path class="st0" d="M17.8,11.5h2.5v0.8c0.7-0.7,1.6-1.2,3-1.2c2.2,0,3.9,1.5,3.9,4.5v6h-2.6v-5.9c0-1.3-0.8-2.2-2-2.2
		c-1.3,0-2,0.9-2.3,1.5v6.6h-2.5V11.5z"/>
	<path class="st0" d="M30.7,13.8h-1.9v-2.3h1.9V9h2.6v2.5h3.1v2.3h-3.1v4.1c0,1.1,0.6,1.6,1.6,1.6c0.7,0,1.2-0.1,1.5-0.2v2.2
		c-0.5,0.2-1.1,0.3-1.9,0.3c-2.5,0-3.7-1.4-3.7-3.9V13.8z"/>
	<path class="st0" d="M38.6,11.5h2.5v1c0.7-0.7,1.5-1.2,2.7-1.2c0.3,0,0.6,0.1,0.9,0.1V14c-0.3-0.1-0.7-0.1-1.1-0.1
		c-1.2,0-2,0.7-2.4,1.3v6.5h-2.5V11.5z"/>
	<path class="st0" d="M51.2,22c-3.6,0-5.6-2.5-5.6-5.4c0-3,1.9-5.4,5.2-5.4c2.8,0,4.6,1.9,4.6,4.5c0,0.6-0.1,1.1-0.2,1.4h-7.1
		c0.2,1.9,1.4,2.6,3,2.6c1.1,0,2.1-0.5,2.6-1.2l1.8,1.4C54.7,21.2,53.1,22,51.2,22z M48.3,15.3h4.6c0-1-0.8-2-2.2-2
		C49.4,13.2,48.6,13.9,48.3,15.3z"/>
	<path class="st0" d="M57.9,11.5h2.5v0.8c0.8-0.8,1.8-1.2,3.1-1.2c3.2,0,5.1,2.5,5.1,5.4c0,2.9-1.9,5.4-5.1,5.4
		c-1.4,0-2.4-0.4-3.1-1.2v5.7h-2.5V11.5z M60.5,15v3.2c0.7,1,1.6,1.5,2.8,1.5c1.7,0,2.8-1.3,2.8-3c0-1.8-1.1-3-2.8-3
		C62.1,13.5,61.1,14.1,60.5,15z"/>
	<path class="st0" d="M71,11.5h2.5v1c0.7-0.7,1.5-1.2,2.7-1.2c0.3,0,0.6,0.1,0.9,0.1V14c-0.3-0.1-0.7-0.1-1.1-0.1
		c-1.2,0-2,0.7-2.4,1.3v6.5H71V11.5z"/>
	<path class="st0" d="M83.6,22C80,22,78,19.5,78,16.6c0-3,1.9-5.4,5.2-5.4c2.8,0,4.6,1.9,4.6,4.5c0,0.6-0.1,1.1-0.2,1.4h-7.1
		c0.2,1.9,1.4,2.6,3,2.6c1.1,0,2.1-0.5,2.6-1.2L88,20C87.1,21.2,85.5,22,83.6,22z M80.7,15.3h4.6c0-1-0.8-2-2.2-2
		C81.8,13.2,81,13.9,80.7,15.3z"/>
	<path class="st0" d="M90.3,11.5h2.5v0.8c0.7-0.7,1.6-1.2,3-1.2c2.2,0,3.9,1.5,3.9,4.5v6h-2.6v-5.9c0-1.3-0.8-2.2-2-2.2
		c-1.3,0-2,0.9-2.3,1.5v6.6h-2.5V11.5z"/>
	<path class="st0" d="M107,11.1c1.4,0,2.3,0.4,3.1,1.2V6.6h2.6v15h-2.6v-0.8c-0.8,0.8-1.8,1.2-3.1,1.2c-3.2,0-5.1-2.5-5.1-5.4
		C101.9,13.6,103.9,11.1,107,11.1z M107.4,19.6c1.1,0,2.1-0.5,2.8-1.4v-3.3c-0.7-0.9-1.6-1.4-2.8-1.4c-1.7,0-2.8,1.3-2.8,3
		C104.6,18.3,105.7,19.6,107.4,19.6z"/>
	<path class="st0" d="M115.8,11.5h2.5v1c0.7-0.7,1.5-1.2,2.7-1.2c0.3,0,0.6,0.1,0.9,0.1V14c-0.3-0.1-0.7-0.1-1.1-0.1
		c-1.2,0-2,0.7-2.4,1.3v6.5h-2.5V11.5z"/>
	<path class="st0" d="M128.3,22c-3.6,0-5.6-2.5-5.6-5.4c0-3,1.9-5.4,5.2-5.4c2.8,0,4.6,1.9,4.6,4.5c0,0.6-0.1,1.1-0.2,1.4h-7.1
		c0.2,1.9,1.4,2.6,3,2.6c1.1,0,2.1-0.5,2.6-1.2l1.8,1.4C131.8,21.2,130.2,22,128.3,22z M125.4,15.3h4.6c0-1-0.8-2-2.2-2
		C126.6,13.2,125.7,13.9,125.4,15.3z"/>
	<path class="st1" d="M134.4,20.1c0-0.9,0.8-1.7,1.8-1.7c0.9,0,1.8,0.8,1.8,1.7c0,1-0.8,1.7-1.8,1.7
		C135.2,21.9,134.4,21.1,134.4,20.1z"/>
	<path class="st1" d="M141.6,17.8c0.8,1.1,2,1.7,3.1,1.7c1.1,0,1.8-0.6,1.8-1.6c0-2.6-6.4-1.9-6.4-6.6c0-2.2,1.8-4.1,4.5-4.1
		c2.1,0,3.7,0.9,4.9,2.4l-2.1,1.9c-0.8-1.1-1.7-1.8-2.8-1.8c-1,0-1.7,0.6-1.7,1.5c0,2.5,6.4,1.8,6.4,6.6c0,2.6-2.1,4.2-4.7,4.2
		c-2.4,0-3.9-0.9-5.2-2.3L141.6,17.8z"/>
	<path class="st1" d="M156.9,22c-3.6,0-5.6-2.5-5.6-5.4c0-3,1.9-5.4,5.2-5.4c2.8,0,4.6,1.9,4.6,4.5c0,0.6-0.1,1.1-0.2,1.4h-7.1
		c0.2,1.9,1.4,2.6,3,2.6c1.1,0,2.1-0.5,2.6-1.2l1.8,1.4C160.4,21.2,158.8,22,156.9,22z M154,15.3h4.6c0-1-0.8-2-2.2-2
		C155.1,13.2,154.3,13.9,154,15.3z"/>
	<path class="st1" d="M163.6,11.5h2.5v1c0.7-0.7,1.5-1.2,2.7-1.2c0.3,0,0.6,0.1,0.9,0.1V14c-0.3-0.1-0.7-0.1-1.1-0.1
		c-1.2,0-2,0.7-2.4,1.3v6.5h-2.5V11.5z"/>
	<path class="st1" d="M173.5,11.5l2.6,7.2l2.6-7.2h2.7l-3.7,10.1h-3.3l-3.7-10.1H173.5z"/>
	<path class="st1" d="M182.7,8.1c0-0.9,0.8-1.7,1.7-1.7s1.6,0.8,1.6,1.7c0,0.9-0.7,1.7-1.6,1.7S182.7,9,182.7,8.1z M183.1,11.5h2.5
		v10.1h-2.5V11.5z"/>
	<path class="st1" d="M195.8,18.5l2,1.5c-0.9,1.2-2.4,2-4.3,2c-3.5,0-5.6-2.5-5.6-5.4c0-2.9,2.1-5.4,5.6-5.4c1.8,0,3.3,0.8,4.3,2
		l-2,1.5c-0.5-0.7-1.3-1.2-2.3-1.2c-1.7,0-2.9,1.3-2.9,3c0,1.8,1.2,3,2.9,3C194.5,19.6,195.3,19.2,195.8,18.5z"/>
	<path class="st1" d="M204.1,22c-3.6,0-5.6-2.5-5.6-5.4c0-3,1.9-5.4,5.2-5.4c2.8,0,4.6,1.9,4.6,4.5c0,0.6-0.1,1.1-0.2,1.4h-7.1
		c0.2,1.9,1.4,2.6,3,2.6c1.1,0,2.1-0.5,2.6-1.2l1.8,1.4C207.6,21.2,206,22,204.1,22z M201.2,15.3h4.6c0-1-0.8-2-2.2-2
		C202.3,13.2,201.5,13.9,201.2,15.3z"/>
	<path class="st1" d="M215.5,15.3v2.5h-5.4v-2.5H215.5z"/>
	<path class="st1" d="M217.9,7.6h4.6c3.1,0,5,1.6,5,4.2c0,2.6-1.9,4.2-5,4.2h-1.8v5.7h-2.8V7.6z M220.8,10v3.6h1.9
		c1.2,0,1.9-0.7,1.9-1.8c0-1.1-0.7-1.8-1.9-1.8H220.8z"/>
	<path class="st1" d="M236.1,11.5h2.6v5.6c0,3-1.8,4.9-4.7,4.9c-3,0-4.7-1.9-4.7-4.9v-5.6h2.6v5.7c0,1.5,0.8,2.4,2.2,2.4
		c1.4,0,2.1-0.9,2.1-2.4V11.5z"/>
	<path class="st1" d="M247.2,22c-1.4,0-2.4-0.4-3.1-1.2v0.8h-2.5v-15h2.5v5.7c0.8-0.8,1.8-1.2,3.1-1.2c3.2,0,5.1,2.5,5.1,5.4
		C252.3,19.5,250.4,22,247.2,22z M244,15v3.2c0.7,0.9,1.6,1.4,2.8,1.4c1.7,0,2.8-1.3,2.8-3c0-1.8-1.1-3-2.8-3
		C245.6,13.5,244.6,14.1,244,15z"/>
	<path class="st1" d="M254.6,6.6h2.5v15h-2.5V6.6z"/>
	<path class="st1" d="M259.8,8.1c0-0.9,0.8-1.7,1.7-1.7s1.6,0.8,1.6,1.7c0,0.9-0.7,1.7-1.6,1.7S259.8,9,259.8,8.1z M260.2,11.5h2.5
		v10.1h-2.5V11.5z"/>
	<path class="st1" d="M272.9,18.5l2,1.5c-0.9,1.2-2.4,2-4.3,2c-3.5,0-5.6-2.5-5.6-5.4c0-2.9,2.1-5.4,5.6-5.4c1.8,0,3.3,0.8,4.3,2
		l-2,1.5c-0.5-0.7-1.3-1.2-2.3-1.2c-1.7,0-2.9,1.3-2.9,3c0,1.8,1.2,3,2.9,3C271.6,19.6,272.4,19.2,272.9,18.5z"/>
	<path class="st1" d="M276.3,20.1c0-0.9,0.8-1.7,1.8-1.7c0.9,0,1.8,0.8,1.8,1.7c0,1-0.8,1.7-1.8,1.7
		C277.1,21.9,276.3,21.1,276.3,20.1z"/>
	<path class="st1" d="M282.9,11.5v-1.1c0-2.1,1.4-3.9,3.9-3.9c0.9,0,1.7,0.2,2.3,0.6l-1.1,2.1c-0.3-0.2-0.7-0.4-1.2-0.4
		c-0.9,0-1.4,0.6-1.4,1.5v1.1h3.1v2.3h-3.1v7.8h-2.6v-7.8H281v-2.3H282.9z"/>
	<path class="st1" d="M290.1,11.5h2.5v1c0.7-0.7,1.5-1.2,2.7-1.2c0.3,0,0.6,0.1,0.9,0.1V14c-0.3-0.1-0.7-0.1-1.1-0.1
		c-1.2,0-2,0.7-2.4,1.3v6.5h-2.5V11.5z"/>
</g>
</svg>
